<?xml version="1.0" encoding="UTF-8"?>
<svg id="Capa_1" data-name="Capa 1" xmlns="http://www.w3.org/2000/svg" version="1.1" viewBox="0 0 24 24">
  <defs>
    <style>
      .cls-1 {
        fill: none;
      }

      .cls-1, .cls-2 {
        stroke-width: 0px;
      }

      .cls-2 {
        fill: #292e3b;
      }
    </style>
  </defs>
  <path class="cls-1" d="M0,0h24v24H0V0Z"/>
  <path class="cls-2" d="M5,12.9c.5,3.9,4.1,6.6,8,6.1,1.6-.2,3.1-1,4.2-2.1,0-.2-.1-.4-.2-.6h0c0-.1,0-.3,0-.3,0-1.1,1-1.9,2.1-1.8,1.1,0,1.9,1,1.8,2.1,0,1.1-1,1.9-2.1,1.8,0,0,0,0,0,0-3.4,3.7-9.1,4-12.9.7-1.6-1.4-2.6-3.4-2.9-5.5,0-.5.3-1,.9-1.1.5,0,1,.3,1.1.8Z"/>
  <path class="cls-2" d="M12,8c2.2,0,4,1.8,4,4s-1.8,4-4,4c-2.1,0-3.9-1.7-4-3.8v-.2s0-.2,0-.2c.1-2.1,1.9-3.8,4-3.8Z"/>
  <path class="cls-2" d="M13.1,3.1c4.1.5,7.3,3.7,7.8,7.8,0,.5-.3,1-.9,1.1-.5,0-1-.3-1.1-.8-.4-3.2-2.9-5.7-6.1-6.1-2.2-.3-4.5.5-6,2.1.4,1,0,2.2-1,2.6s-2.2,0-2.6-1c0-.2-.1-.4-.2-.6h0c0-.1,0-.3,0-.3,0-1.1,1-1.9,2.1-1.8,0,0,0,0,0,0,2-2.2,5-3.3,7.9-2.9Z"/>
</svg>