<?xml version="1.0" encoding="UTF-8"?>
<svg id="Capa_1" data-name="Capa 1" xmlns="http://www.w3.org/2000/svg" version="1.1" viewBox="0 0 24 24">
  <defs>
    <style>
      .cls-1 {
        fill: none;
      }

      .cls-1, .cls-2 {
        stroke-width: 0px;
      }

      .cls-2 {
        fill: #292e3b;
      }
    </style>
  </defs>
  <path class="cls-1" d="M0,0h24v24H0V0Z"/>
  <path class="cls-2" d="M12,19c.5,0,.9.4,1,.9h0v1.1c0,.6-.4,1-1,1-.5,0-.9-.4-1-.9h0v-1.1c0-.6.4-1,1-1Z"/>
  <path class="cls-2" d="M18.3,16.9h0c0,0,.7.8.7.8.4.4.4,1,0,1.4-.4.4-.9.4-1.3,0h0c0,0-.7-.8-.7-.8-.4-.4-.4-1,0-1.4.3-.3.8-.4,1.2-.2h.1Z"/>
  <path class="cls-2" d="M7,17c.4.4.4.9,0,1.3h0c0,0-.7.8-.7.8-.4.4-1,.4-1.4,0-.4-.4-.4-.9,0-1.3h0c0,0,.7-.8.7-.8.4-.4,1-.4,1.4,0Z"/>
  <path class="cls-2" d="M4,11c.6,0,1,.4,1,1,0,.5-.4.9-.9,1h-.1s-1,0-1,0c-.6,0-1-.4-1-1,0-.5.4-.9.9-1h.1s1,0,1,0Z"/>
  <path class="cls-2" d="M21,11c.6,0,1,.4,1,1,0,.5-.4.9-.9,1h-.1s-1,0-1,0c-.6,0-1-.4-1-1,0-.5.4-.9.9-1h.1s1,0,1,0Z"/>
  <path class="cls-2" d="M6.2,4.8h0c0,0,.7.8.7.8.4.4.4,1,0,1.4-.4.4-.9.4-1.3,0h0c0,0-.7-.8-.7-.8-.4-.4-.4-1,0-1.4.3-.3.8-.4,1.2-.2h.1c0,0,0,0,0,0Z"/>
  <path class="cls-2" d="M19.1,4.9c.4.4.4.9,0,1.3h0c0,0-.7.8-.7.8-.4.4-1,.4-1.4,0-.4-.4-.4-.9,0-1.3h0c0,0,.7-.8.7-.8.4-.4,1-.4,1.4,0Z"/>
  <path class="cls-2" d="M12,2c.5,0,.9.4,1,.9h0v1.1c0,.6-.4,1-1,1-.5,0-.9-.4-1-.9h0v-1.1c0-.6.4-1,1-1Z"/>
  <path class="cls-2" d="M12,7c2.8,0,5,2.2,5,5,0,2.8-2.2,5-5,5-2.7,0-4.9-2.1-5-4.8v-.2s0-.2,0-.2c.1-2.7,2.3-4.8,5-4.8Z"/>
</svg>