<svg xmlns="http://www.w3.org/2000/svg" version="1.1" xmlns:xlink="http://www.w3.org/1999/xlink" xmlns:svgjs="http://svgjs.dev/svgjs" viewBox="0 0 1422 800" opacity="0.57"><g stroke-width="3" stroke="#e5e52e" fill="none" stroke-linecap="butt"><line x1="50" y1="0" x2="0" y2="50" opacity="1.00"></line><line x1="50" y1="0" x2="100" y2="50" opacity="1.00"></line><line x1="150" y1="0" x2="100" y2="50" opacity="1.00"></line><line x1="150" y1="0" x2="200" y2="50" opacity="1.00"></line><line x1="250" y1="0" x2="200" y2="50" opacity="1.00"></line><line x1="300" y1="0" x2="250" y2="50" opacity="1.00"></line><line x1="350" y1="0" x2="300" y2="50" opacity="1.00"></line><line x1="400" y1="0" x2="350" y2="50" opacity="1.00"></line><line x1="400" y1="0" x2="450" y2="50" opacity="1.00"></line><line x1="450" y1="0" x2="500" y2="50" opacity="1.00"></line><line x1="550" y1="0" x2="500" y2="50" opacity="1.00"></line><line x1="600" y1="0" x2="550" y2="50" opacity="1.00"></line><line x1="600" y1="0" x2="650" y2="50" opacity="1.00"></line><line x1="650" y1="0" x2="700" y2="50" opacity="1.00"></line><line x1="750" y1="0" x2="700" y2="50" opacity="1.00"></line><line x1="750" y1="0" x2="800" y2="50" opacity="1.00"></line><line x1="800" y1="0" x2="850" y2="50" opacity="1.00"></line><line x1="900" y1="0" x2="850" y2="50" opacity="1.00"></line><line x1="900" y1="0" x2="950" y2="50" opacity="1.00"></line><line x1="1000" y1="0" x2="950" y2="50" opacity="1.00"></line><line x1="1000" y1="0" x2="1050" y2="50" opacity="1.00"></line><line x1="1100" y1="0" x2="1050" y2="50" opacity="1.00"></line><line x1="1100" y1="0" x2="1150" y2="50" opacity="1.00"></line><line x1="1150" y1="0" x2="1200" y2="50" opacity="1.00"></line><line x1="1250" y1="0" x2="1200" y2="50" opacity="1.00"></line><line x1="1250" y1="0" x2="1300" y2="50" opacity="1.00"></line><line x1="1300" y1="0" x2="1350" y2="50" opacity="1.00"></line><line x1="1400" y1="0" x2="1350" y2="50" opacity="1.00"></line><line x1="1450" y1="0" x2="1400" y2="50" opacity="1.00"></line><line x1="50" y1="50" x2="0" y2="100" opacity="0.94"></line><line x1="50" y1="50" x2="100" y2="100" opacity="0.94"></line><line x1="150" y1="50" x2="100" y2="100" opacity="0.94"></line><line x1="150" y1="50" x2="200" y2="100" opacity="0.94"></line><line x1="200" y1="50" x2="250" y2="100" opacity="0.94"></line><line x1="300" y1="50" x2="250" y2="100" opacity="0.94"></line><line x1="300" y1="50" x2="350" y2="100" opacity="0.94"></line><line x1="350" y1="50" x2="400" y2="100" opacity="0.94"></line><line x1="450" y1="50" x2="400" y2="100" opacity="0.94"></line><line x1="450" y1="50" x2="500" y2="100" opacity="0.94"></line><line x1="500" y1="50" x2="550" y2="100" opacity="0.94"></line><line x1="600" y1="50" x2="550" y2="100" opacity="0.94"></line><line x1="650" y1="50" x2="600" y2="100" opacity="0.94"></line><line x1="650" y1="50" x2="700" y2="100" opacity="0.94"></line><line x1="700" y1="50" x2="750" y2="100" opacity="0.94"></line><line x1="750" y1="50" x2="800" y2="100" opacity="0.94"></line><line x1="850" y1="50" x2="800" y2="100" opacity="0.94"></line><line x1="900" y1="50" x2="850" y2="100" opacity="0.94"></line><line x1="900" y1="50" x2="950" y2="100" opacity="0.94"></line><line x1="1000" y1="50" x2="950" y2="100" opacity="0.94"></line><line x1="1050" y1="50" x2="1000" y2="100" opacity="0.94"></line><line x1="1050" y1="50" x2="1100" y2="100" opacity="0.94"></line><line x1="1150" y1="50" x2="1100" y2="100" opacity="0.94"></line><line x1="1150" y1="50" x2="1200" y2="100" opacity="0.94"></line><line x1="1250" y1="50" x2="1200" y2="100" opacity="0.94"></line><line x1="1250" y1="50" x2="1300" y2="100" opacity="0.94"></line><line x1="1300" y1="50" x2="1350" y2="100" opacity="0.94"></line><line x1="1350" y1="50" x2="1400" y2="100" opacity="0.94"></line><line x1="1450" y1="50" x2="1400" y2="100" opacity="0.94"></line><line x1="50" y1="100" x2="0" y2="150" opacity="0.88"></line><line x1="50" y1="100" x2="100" y2="150" opacity="0.88"></line><line x1="150" y1="100" x2="100" y2="150" opacity="0.88"></line><line x1="200" y1="100" x2="150" y2="150" opacity="0.88"></line><line x1="200" y1="100" x2="250" y2="150" opacity="0.88"></line><line x1="300" y1="100" x2="250" y2="150" opacity="0.88"></line><line x1="300" y1="100" x2="350" y2="150" opacity="0.88"></line><line x1="350" y1="100" x2="400" y2="150" opacity="0.88"></line><line x1="450" y1="100" x2="400" y2="150" opacity="0.88"></line><line x1="450" y1="100" x2="500" y2="150" opacity="0.88"></line><line x1="500" y1="100" x2="550" y2="150" opacity="0.88"></line><line x1="600" y1="100" x2="550" y2="150" opacity="0.88"></line><line x1="600" y1="100" x2="650" y2="150" opacity="0.88"></line><line x1="650" y1="100" x2="700" y2="150" opacity="0.88"></line><line x1="750" y1="100" x2="700" y2="150" opacity="0.88"></line><line x1="800" y1="100" x2="750" y2="150" opacity="0.88"></line><line x1="800" y1="100" x2="850" y2="150" opacity="0.88"></line><line x1="850" y1="100" x2="900" y2="150" opacity="0.88"></line><line x1="950" y1="100" x2="900" y2="150" opacity="0.88"></line><line x1="950" y1="100" x2="1000" y2="150" opacity="0.88"></line><line x1="1000" y1="100" x2="1050" y2="150" opacity="0.88"></line><line x1="1100" y1="100" x2="1050" y2="150" opacity="0.88"></line><line x1="1150" y1="100" x2="1100" y2="150" opacity="0.88"></line><line x1="1200" y1="100" x2="1150" y2="150" opacity="0.88"></line><line x1="1200" y1="100" x2="1250" y2="150" opacity="0.88"></line><line x1="1300" y1="100" x2="1250" y2="150" opacity="0.88"></line><line x1="1350" y1="100" x2="1300" y2="150" opacity="0.88"></line><line x1="1350" y1="100" x2="1400" y2="150" opacity="0.88"></line><line x1="1450" y1="100" x2="1400" y2="150" opacity="0.88"></line><line x1="0" y1="150" x2="50" y2="200" opacity="0.82"></line><line x1="50" y1="150" x2="100" y2="200" opacity="0.82"></line><line x1="100" y1="150" x2="150" y2="200" opacity="0.82"></line><line x1="200" y1="150" x2="150" y2="200" opacity="0.82"></line><line x1="250" y1="150" x2="200" y2="200" opacity="0.82"></line><line x1="300" y1="150" x2="250" y2="200" opacity="0.82"></line><line x1="350" y1="150" x2="300" y2="200" opacity="0.82"></line><line x1="400" y1="150" x2="350" y2="200" opacity="0.82"></line><line x1="450" y1="150" x2="400" y2="200" opacity="0.82"></line><line x1="450" y1="150" x2="500" y2="200" opacity="0.82"></line><line x1="500" y1="150" x2="550" y2="200" opacity="0.82"></line><line x1="550" y1="150" x2="600" y2="200" opacity="0.82"></line><line x1="650" y1="150" x2="600" y2="200" opacity="0.82"></line><line x1="700" y1="150" x2="650" y2="200" opacity="0.82"></line><line x1="750" y1="150" x2="700" y2="200" opacity="0.82"></line><line x1="750" y1="150" x2="800" y2="200" opacity="0.82"></line><line x1="800" y1="150" x2="850" y2="200" opacity="0.82"></line><line x1="850" y1="150" x2="900" y2="200" opacity="0.82"></line><line x1="900" y1="150" x2="950" y2="200" opacity="0.82"></line><line x1="950" y1="150" x2="1000" y2="200" opacity="0.82"></line><line x1="1050" y1="150" x2="1000" y2="200" opacity="0.82"></line><line x1="1100" y1="150" x2="1050" y2="200" opacity="0.82"></line><line x1="1150" y1="150" x2="1100" y2="200" opacity="0.82"></line><line x1="1150" y1="150" x2="1200" y2="200" opacity="0.82"></line><line x1="1200" y1="150" x2="1250" y2="200" opacity="0.82"></line><line x1="1250" y1="150" x2="1300" y2="200" opacity="0.82"></line><line x1="1350" y1="150" x2="1300" y2="200" opacity="0.82"></line><line x1="1350" y1="150" x2="1400" y2="200" opacity="0.82"></line><line x1="1450" y1="150" x2="1400" y2="200" opacity="0.82"></line><line x1="50" y1="200" x2="0" y2="250" opacity="0.76"></line><line x1="50" y1="200" x2="100" y2="250" opacity="0.76"></line><line x1="100" y1="200" x2="150" y2="250" opacity="0.76"></line><line x1="200" y1="200" x2="150" y2="250" opacity="0.76"></line><line x1="200" y1="200" x2="250" y2="250" opacity="0.76"></line><line x1="300" y1="200" x2="250" y2="250" opacity="0.76"></line><line x1="300" y1="200" x2="350" y2="250" opacity="0.76"></line><line x1="400" y1="200" x2="350" y2="250" opacity="0.76"></line><line x1="450" y1="200" x2="400" y2="250" opacity="0.76"></line><line x1="500" y1="200" x2="450" y2="250" opacity="0.76"></line><line x1="500" y1="200" x2="550" y2="250" opacity="0.76"></line><line x1="600" y1="200" x2="550" y2="250" opacity="0.76"></line><line x1="600" y1="200" x2="650" y2="250" opacity="0.76"></line><line x1="700" y1="200" x2="650" y2="250" opacity="0.76"></line><line x1="700" y1="200" x2="750" y2="250" opacity="0.76"></line><line x1="800" y1="200" x2="750" y2="250" opacity="0.76"></line><line x1="850" y1="200" x2="800" y2="250" opacity="0.76"></line><line x1="850" y1="200" x2="900" y2="250" opacity="0.76"></line><line x1="950" y1="200" x2="900" y2="250" opacity="0.76"></line><line x1="950" y1="200" x2="1000" y2="250" opacity="0.76"></line><line x1="1050" y1="200" x2="1000" y2="250" opacity="0.76"></line><line x1="1100" y1="200" x2="1050" y2="250" opacity="0.76"></line><line x1="1100" y1="200" x2="1150" y2="250" opacity="0.76"></line><line x1="1200" y1="200" x2="1150" y2="250" opacity="0.76"></line><line x1="1250" y1="200" x2="1200" y2="250" opacity="0.76"></line><line x1="1300" y1="200" x2="1250" y2="250" opacity="0.76"></line><line x1="1300" y1="200" x2="1350" y2="250" opacity="0.76"></line><line x1="1400" y1="200" x2="1350" y2="250" opacity="0.76"></line><line x1="1400" y1="200" x2="1450" y2="250" opacity="0.76"></line><line x1="50" y1="250" x2="0" y2="300" opacity="0.70"></line><line x1="100" y1="250" x2="50" y2="300" opacity="0.70"></line><line x1="100" y1="250" x2="150" y2="300" opacity="0.70"></line><line x1="200" y1="250" x2="150" y2="300" opacity="0.70"></line><line x1="200" y1="250" x2="250" y2="300" opacity="0.70"></line><line x1="300" y1="250" x2="250" y2="300" opacity="0.70"></line><line x1="300" y1="250" x2="350" y2="300" opacity="0.70"></line><line x1="350" y1="250" x2="400" y2="300" opacity="0.70"></line><line x1="400" y1="250" x2="450" y2="300" opacity="0.70"></line><line x1="500" y1="250" x2="450" y2="300" opacity="0.70"></line><line x1="550" y1="250" x2="500" y2="300" opacity="0.70"></line><line x1="550" y1="250" x2="600" y2="300" opacity="0.70"></line><line x1="600" y1="250" x2="650" y2="300" opacity="0.70"></line><line x1="650" y1="250" x2="700" y2="300" opacity="0.70"></line><line x1="750" y1="250" x2="700" y2="300" opacity="0.70"></line><line x1="800" y1="250" x2="750" y2="300" opacity="0.70"></line><line x1="800" y1="250" x2="850" y2="300" opacity="0.70"></line><line x1="850" y1="250" x2="900" y2="300" opacity="0.70"></line><line x1="950" y1="250" x2="900" y2="300" opacity="0.70"></line><line x1="1000" y1="250" x2="950" y2="300" opacity="0.70"></line><line x1="1000" y1="250" x2="1050" y2="300" opacity="0.70"></line><line x1="1050" y1="250" x2="1100" y2="300" opacity="0.70"></line><line x1="1150" y1="250" x2="1100" y2="300" opacity="0.70"></line><line x1="1150" y1="250" x2="1200" y2="300" opacity="0.70"></line><line x1="1250" y1="250" x2="1200" y2="300" opacity="0.70"></line><line x1="1250" y1="250" x2="1300" y2="300" opacity="0.70"></line><line x1="1300" y1="250" x2="1350" y2="300" opacity="0.70"></line><line x1="1350" y1="250" x2="1400" y2="300" opacity="0.70"></line><line x1="1400" y1="250" x2="1450" y2="300" opacity="0.70"></line><line x1="0" y1="300" x2="50" y2="350" opacity="0.64"></line><line x1="50" y1="300" x2="100" y2="350" opacity="0.64"></line><line x1="150" y1="300" x2="100" y2="350" opacity="0.64"></line><line x1="150" y1="300" x2="200" y2="350" opacity="0.64"></line><line x1="200" y1="300" x2="250" y2="350" opacity="0.64"></line><line x1="300" y1="300" x2="250" y2="350" opacity="0.64"></line><line x1="300" y1="300" x2="350" y2="350" opacity="0.64"></line><line x1="400" y1="300" x2="350" y2="350" opacity="0.64"></line><line x1="400" y1="300" x2="450" y2="350" opacity="0.64"></line><line x1="450" y1="300" x2="500" y2="350" opacity="0.64"></line><line x1="550" y1="300" x2="500" y2="350" opacity="0.64"></line><line x1="600" y1="300" x2="550" y2="350" opacity="0.64"></line><line x1="650" y1="300" x2="600" y2="350" opacity="0.64"></line><line x1="650" y1="300" x2="700" y2="350" opacity="0.64"></line><line x1="750" y1="300" x2="700" y2="350" opacity="0.64"></line><line x1="750" y1="300" x2="800" y2="350" opacity="0.64"></line><line x1="800" y1="300" x2="850" y2="350" opacity="0.64"></line><line x1="850" y1="300" x2="900" y2="350" opacity="0.64"></line><line x1="900" y1="300" x2="950" y2="350" opacity="0.64"></line><line x1="950" y1="300" x2="1000" y2="350" opacity="0.64"></line><line x1="1000" y1="300" x2="1050" y2="350" opacity="0.64"></line><line x1="1050" y1="300" x2="1100" y2="350" opacity="0.64"></line><line x1="1150" y1="300" x2="1100" y2="350" opacity="0.64"></line><line x1="1200" y1="300" x2="1150" y2="350" opacity="0.64"></line><line x1="1250" y1="300" x2="1200" y2="350" opacity="0.64"></line><line x1="1300" y1="300" x2="1250" y2="350" opacity="0.64"></line><line x1="1350" y1="300" x2="1300" y2="350" opacity="0.64"></line><line x1="1400" y1="300" x2="1350" y2="350" opacity="0.64"></line><line x1="1400" y1="300" x2="1450" y2="350" opacity="0.64"></line><line x1="0" y1="350" x2="50" y2="400" opacity="0.58"></line><line x1="50" y1="350" x2="100" y2="400" opacity="0.58"></line><line x1="100" y1="350" x2="150" y2="400" opacity="0.58"></line><line x1="150" y1="350" x2="200" y2="400" opacity="0.58"></line><line x1="200" y1="350" x2="250" y2="400" opacity="0.58"></line><line x1="300" y1="350" x2="250" y2="400" opacity="0.58"></line><line x1="300" y1="350" x2="350" y2="400" opacity="0.58"></line><line x1="400" y1="350" x2="350" y2="400" opacity="0.58"></line><line x1="400" y1="350" x2="450" y2="400" opacity="0.58"></line><line x1="450" y1="350" x2="500" y2="400" opacity="0.58"></line><line x1="550" y1="350" x2="500" y2="400" opacity="0.58"></line><line x1="600" y1="350" x2="550" y2="400" opacity="0.58"></line><line x1="600" y1="350" x2="650" y2="400" opacity="0.58"></line><line x1="650" y1="350" x2="700" y2="400" opacity="0.58"></line><line x1="700" y1="350" x2="750" y2="400" opacity="0.58"></line><line x1="750" y1="350" x2="800" y2="400" opacity="0.58"></line><line x1="850" y1="350" x2="800" y2="400" opacity="0.58"></line><line x1="850" y1="350" x2="900" y2="400" opacity="0.58"></line><line x1="950" y1="350" x2="900" y2="400" opacity="0.58"></line><line x1="1000" y1="350" x2="950" y2="400" opacity="0.58"></line><line x1="1050" y1="350" x2="1000" y2="400" opacity="0.58"></line><line x1="1050" y1="350" x2="1100" y2="400" opacity="0.58"></line><line x1="1150" y1="350" x2="1100" y2="400" opacity="0.58"></line><line x1="1150" y1="350" x2="1200" y2="400" opacity="0.58"></line><line x1="1200" y1="350" x2="1250" y2="400" opacity="0.58"></line><line x1="1250" y1="350" x2="1300" y2="400" opacity="0.58"></line><line x1="1350" y1="350" x2="1300" y2="400" opacity="0.58"></line><line x1="1400" y1="350" x2="1350" y2="400" opacity="0.58"></line><line x1="1400" y1="350" x2="1450" y2="400" opacity="0.58"></line><line x1="50" y1="400" x2="0" y2="450" opacity="0.53"></line><line x1="50" y1="400" x2="100" y2="450" opacity="0.53"></line><line x1="100" y1="400" x2="150" y2="450" opacity="0.53"></line><line x1="150" y1="400" x2="200" y2="450" opacity="0.53"></line><line x1="250" y1="400" x2="200" y2="450" opacity="0.53"></line><line x1="300" y1="400" x2="250" y2="450" opacity="0.53"></line><line x1="350" y1="400" x2="300" y2="450" opacity="0.53"></line><line x1="400" y1="400" x2="350" y2="450" opacity="0.53"></line><line x1="450" y1="400" x2="400" y2="450" opacity="0.53"></line><line x1="500" y1="400" x2="450" y2="450" opacity="0.53"></line><line x1="500" y1="400" x2="550" y2="450" opacity="0.53"></line><line x1="600" y1="400" x2="550" y2="450" opacity="0.53"></line><line x1="650" y1="400" x2="600" y2="450" opacity="0.53"></line><line x1="650" y1="400" x2="700" y2="450" opacity="0.53"></line><line x1="700" y1="400" x2="750" y2="450" opacity="0.53"></line><line x1="800" y1="400" x2="750" y2="450" opacity="0.53"></line><line x1="800" y1="400" x2="850" y2="450" opacity="0.53"></line><line x1="900" y1="400" x2="850" y2="450" opacity="0.53"></line><line x1="900" y1="400" x2="950" y2="450" opacity="0.53"></line><line x1="1000" y1="400" x2="950" y2="450" opacity="0.53"></line><line x1="1050" y1="400" x2="1000" y2="450" opacity="0.53"></line><line x1="1050" y1="400" x2="1100" y2="450" opacity="0.53"></line><line x1="1150" y1="400" x2="1100" y2="450" opacity="0.53"></line><line x1="1200" y1="400" x2="1150" y2="450" opacity="0.53"></line><line x1="1250" y1="400" x2="1200" y2="450" opacity="0.53"></line><line x1="1250" y1="400" x2="1300" y2="450" opacity="0.53"></line><line x1="1300" y1="400" x2="1350" y2="450" opacity="0.53"></line><line x1="1400" y1="400" x2="1350" y2="450" opacity="0.53"></line><line x1="1400" y1="400" x2="1450" y2="450" opacity="0.53"></line><line x1="0" y1="450" x2="50" y2="500" opacity="0.47"></line><line x1="50" y1="450" x2="100" y2="500" opacity="0.47"></line><line x1="150" y1="450" x2="100" y2="500" opacity="0.47"></line><line x1="200" y1="450" x2="150" y2="500" opacity="0.47"></line><line x1="250" y1="450" x2="200" y2="500" opacity="0.47"></line><line x1="300" y1="450" x2="250" y2="500" opacity="0.47"></line><line x1="350" y1="450" x2="300" y2="500" opacity="0.47"></line><line x1="350" y1="450" x2="400" y2="500" opacity="0.47"></line><line x1="450" y1="450" x2="400" y2="500" opacity="0.47"></line><line x1="450" y1="450" x2="500" y2="500" opacity="0.47"></line><line x1="500" y1="450" x2="550" y2="500" opacity="0.47"></line><line x1="550" y1="450" x2="600" y2="500" opacity="0.47"></line><line x1="650" y1="450" x2="600" y2="500" opacity="0.47"></line><line x1="650" y1="450" x2="700" y2="500" opacity="0.47"></line><line x1="750" y1="450" x2="700" y2="500" opacity="0.47"></line><line x1="750" y1="450" x2="800" y2="500" opacity="0.47"></line><line x1="800" y1="450" x2="850" y2="500" opacity="0.47"></line><line x1="900" y1="450" x2="850" y2="500" opacity="0.47"></line><line x1="950" y1="450" x2="900" y2="500" opacity="0.47"></line><line x1="950" y1="450" x2="1000" y2="500" opacity="0.47"></line><line x1="1050" y1="450" x2="1000" y2="500" opacity="0.47"></line><line x1="1050" y1="450" x2="1100" y2="500" opacity="0.47"></line><line x1="1100" y1="450" x2="1150" y2="500" opacity="0.47"></line><line x1="1150" y1="450" x2="1200" y2="500" opacity="0.47"></line><line x1="1250" y1="450" x2="1200" y2="500" opacity="0.47"></line><line x1="1250" y1="450" x2="1300" y2="500" opacity="0.47"></line><line x1="1350" y1="450" x2="1300" y2="500" opacity="0.47"></line><line x1="1400" y1="450" x2="1350" y2="500" opacity="0.47"></line><line x1="1400" y1="450" x2="1450" y2="500" opacity="0.47"></line><line x1="0" y1="500" x2="50" y2="550" opacity="0.41"></line><line x1="100" y1="500" x2="50" y2="550" opacity="0.41"></line><line x1="150" y1="500" x2="100" y2="550" opacity="0.41"></line><line x1="150" y1="500" x2="200" y2="550" opacity="0.41"></line><line x1="250" y1="500" x2="200" y2="550" opacity="0.41"></line><line x1="250" y1="500" x2="300" y2="550" opacity="0.41"></line><line x1="300" y1="500" x2="350" y2="550" opacity="0.41"></line><line x1="400" y1="500" x2="350" y2="550" opacity="0.41"></line><line x1="450" y1="500" x2="400" y2="550" opacity="0.41"></line><line x1="450" y1="500" x2="500" y2="550" opacity="0.41"></line><line x1="550" y1="500" x2="500" y2="550" opacity="0.41"></line><line x1="550" y1="500" x2="600" y2="550" opacity="0.41"></line><line x1="650" y1="500" x2="600" y2="550" opacity="0.41"></line><line x1="700" y1="500" x2="650" y2="550" opacity="0.41"></line><line x1="750" y1="500" x2="700" y2="550" opacity="0.41"></line><line x1="750" y1="500" x2="800" y2="550" opacity="0.41"></line><line x1="850" y1="500" x2="800" y2="550" opacity="0.41"></line><line x1="900" y1="500" x2="850" y2="550" opacity="0.41"></line><line x1="900" y1="500" x2="950" y2="550" opacity="0.41"></line><line x1="1000" y1="500" x2="950" y2="550" opacity="0.41"></line><line x1="1050" y1="500" x2="1000" y2="550" opacity="0.41"></line><line x1="1050" y1="500" x2="1100" y2="550" opacity="0.41"></line><line x1="1100" y1="500" x2="1150" y2="550" opacity="0.41"></line><line x1="1200" y1="500" x2="1150" y2="550" opacity="0.41"></line><line x1="1250" y1="500" x2="1200" y2="550" opacity="0.41"></line><line x1="1250" y1="500" x2="1300" y2="550" opacity="0.41"></line><line x1="1300" y1="500" x2="1350" y2="550" opacity="0.41"></line><line x1="1350" y1="500" x2="1400" y2="550" opacity="0.41"></line><line x1="1400" y1="500" x2="1450" y2="550" opacity="0.41"></line><line x1="0" y1="550" x2="50" y2="600" opacity="0.35"></line><line x1="50" y1="550" x2="100" y2="600" opacity="0.35"></line><line x1="150" y1="550" x2="100" y2="600" opacity="0.35"></line><line x1="200" y1="550" x2="150" y2="600" opacity="0.35"></line><line x1="200" y1="550" x2="250" y2="600" opacity="0.35"></line><line x1="300" y1="550" x2="250" y2="600" opacity="0.35"></line><line x1="300" y1="550" x2="350" y2="600" opacity="0.35"></line><line x1="400" y1="550" x2="350" y2="600" opacity="0.35"></line><line x1="400" y1="550" x2="450" y2="600" opacity="0.35"></line><line x1="500" y1="550" x2="450" y2="600" opacity="0.35"></line><line x1="550" y1="550" x2="500" y2="600" opacity="0.35"></line><line x1="600" y1="550" x2="550" y2="600" opacity="0.35"></line><line x1="650" y1="550" x2="600" y2="600" opacity="0.35"></line><line x1="700" y1="550" x2="650" y2="600" opacity="0.35"></line><line x1="700" y1="550" x2="750" y2="600" opacity="0.35"></line><line x1="800" y1="550" x2="750" y2="600" opacity="0.35"></line><line x1="800" y1="550" x2="850" y2="600" opacity="0.35"></line><line x1="900" y1="550" x2="850" y2="600" opacity="0.35"></line><line x1="900" y1="550" x2="950" y2="600" opacity="0.35"></line><line x1="1000" y1="550" x2="950" y2="600" opacity="0.35"></line><line x1="1050" y1="550" x2="1000" y2="600" opacity="0.35"></line><line x1="1100" y1="550" x2="1050" y2="600" opacity="0.35"></line><line x1="1100" y1="550" x2="1150" y2="600" opacity="0.35"></line><line x1="1200" y1="550" x2="1150" y2="600" opacity="0.35"></line><line x1="1250" y1="550" x2="1200" y2="600" opacity="0.35"></line><line x1="1250" y1="550" x2="1300" y2="600" opacity="0.35"></line><line x1="1300" y1="550" x2="1350" y2="600" opacity="0.35"></line><line x1="1400" y1="550" x2="1350" y2="600" opacity="0.35"></line><line x1="1400" y1="550" x2="1450" y2="600" opacity="0.35"></line><line x1="50" y1="600" x2="0" y2="650" opacity="0.29"></line><line x1="100" y1="600" x2="50" y2="650" opacity="0.29"></line><line x1="100" y1="600" x2="150" y2="650" opacity="0.29"></line><line x1="200" y1="600" x2="150" y2="650" opacity="0.29"></line><line x1="200" y1="600" x2="250" y2="650" opacity="0.29"></line><line x1="250" y1="600" x2="300" y2="650" opacity="0.29"></line><line x1="350" y1="600" x2="300" y2="650" opacity="0.29"></line><line x1="350" y1="600" x2="400" y2="650" opacity="0.29"></line><line x1="450" y1="600" x2="400" y2="650" opacity="0.29"></line><line x1="450" y1="600" x2="500" y2="650" opacity="0.29"></line><line x1="550" y1="600" x2="500" y2="650" opacity="0.29"></line><line x1="550" y1="600" x2="600" y2="650" opacity="0.29"></line><line x1="600" y1="600" x2="650" y2="650" opacity="0.29"></line><line x1="700" y1="600" x2="650" y2="650" opacity="0.29"></line><line x1="750" y1="600" x2="700" y2="650" opacity="0.29"></line><line x1="800" y1="600" x2="750" y2="650" opacity="0.29"></line><line x1="800" y1="600" x2="850" y2="650" opacity="0.29"></line><line x1="900" y1="600" x2="850" y2="650" opacity="0.29"></line><line x1="900" y1="600" x2="950" y2="650" opacity="0.29"></line><line x1="950" y1="600" x2="1000" y2="650" opacity="0.29"></line><line x1="1050" y1="600" x2="1000" y2="650" opacity="0.29"></line><line x1="1100" y1="600" x2="1050" y2="650" opacity="0.29"></line><line x1="1100" y1="600" x2="1150" y2="650" opacity="0.29"></line><line x1="1200" y1="600" x2="1150" y2="650" opacity="0.29"></line><line x1="1200" y1="600" x2="1250" y2="650" opacity="0.29"></line><line x1="1300" y1="600" x2="1250" y2="650" opacity="0.29"></line><line x1="1350" y1="600" x2="1300" y2="650" opacity="0.29"></line><line x1="1350" y1="600" x2="1400" y2="650" opacity="0.29"></line><line x1="1450" y1="600" x2="1400" y2="650" opacity="0.29"></line><line x1="0" y1="650" x2="50" y2="700" opacity="0.23"></line><line x1="100" y1="650" x2="50" y2="700" opacity="0.23"></line><line x1="150" y1="650" x2="100" y2="700" opacity="0.23"></line><line x1="150" y1="650" x2="200" y2="700" opacity="0.23"></line><line x1="200" y1="650" x2="250" y2="700" opacity="0.23"></line><line x1="250" y1="650" x2="300" y2="700" opacity="0.23"></line><line x1="300" y1="650" x2="350" y2="700" opacity="0.23"></line><line x1="350" y1="650" x2="400" y2="700" opacity="0.23"></line><line x1="400" y1="650" x2="450" y2="700" opacity="0.23"></line><line x1="450" y1="650" x2="500" y2="700" opacity="0.23"></line><line x1="550" y1="650" x2="500" y2="700" opacity="0.23"></line><line x1="550" y1="650" x2="600" y2="700" opacity="0.23"></line><line x1="600" y1="650" x2="650" y2="700" opacity="0.23"></line><line x1="700" y1="650" x2="650" y2="700" opacity="0.23"></line><line x1="750" y1="650" x2="700" y2="700" opacity="0.23"></line><line x1="800" y1="650" x2="750" y2="700" opacity="0.23"></line><line x1="850" y1="650" x2="800" y2="700" opacity="0.23"></line><line x1="900" y1="650" x2="850" y2="700" opacity="0.23"></line><line x1="900" y1="650" x2="950" y2="700" opacity="0.23"></line><line x1="950" y1="650" x2="1000" y2="700" opacity="0.23"></line><line x1="1050" y1="650" x2="1000" y2="700" opacity="0.23"></line><line x1="1050" y1="650" x2="1100" y2="700" opacity="0.23"></line><line x1="1150" y1="650" x2="1100" y2="700" opacity="0.23"></line><line x1="1200" y1="650" x2="1150" y2="700" opacity="0.23"></line><line x1="1250" y1="650" x2="1200" y2="700" opacity="0.23"></line><line x1="1300" y1="650" x2="1250" y2="700" opacity="0.23"></line><line x1="1300" y1="650" x2="1350" y2="700" opacity="0.23"></line><line x1="1400" y1="650" x2="1350" y2="700" opacity="0.23"></line><line x1="1450" y1="650" x2="1400" y2="700" opacity="0.23"></line><line x1="0" y1="700" x2="50" y2="750" opacity="0.17"></line><line x1="100" y1="700" x2="50" y2="750" opacity="0.17"></line><line x1="150" y1="700" x2="100" y2="750" opacity="0.17"></line><line x1="150" y1="700" x2="200" y2="750" opacity="0.17"></line><line x1="200" y1="700" x2="250" y2="750" opacity="0.17"></line><line x1="250" y1="700" x2="300" y2="750" opacity="0.17"></line><line x1="350" y1="700" x2="300" y2="750" opacity="0.17"></line><line x1="400" y1="700" x2="350" y2="750" opacity="0.17"></line><line x1="450" y1="700" x2="400" y2="750" opacity="0.17"></line><line x1="500" y1="700" x2="450" y2="750" opacity="0.17"></line><line x1="550" y1="700" x2="500" y2="750" opacity="0.17"></line><line x1="550" y1="700" x2="600" y2="750" opacity="0.17"></line><line x1="600" y1="700" x2="650" y2="750" opacity="0.17"></line><line x1="650" y1="700" x2="700" y2="750" opacity="0.17"></line><line x1="700" y1="700" x2="750" y2="750" opacity="0.17"></line><line x1="750" y1="700" x2="800" y2="750" opacity="0.17"></line><line x1="800" y1="700" x2="850" y2="750" opacity="0.17"></line><line x1="850" y1="700" x2="900" y2="750" opacity="0.17"></line><line x1="950" y1="700" x2="900" y2="750" opacity="0.17"></line><line x1="950" y1="700" x2="1000" y2="750" opacity="0.17"></line><line x1="1000" y1="700" x2="1050" y2="750" opacity="0.17"></line><line x1="1100" y1="700" x2="1050" y2="750" opacity="0.17"></line><line x1="1150" y1="700" x2="1100" y2="750" opacity="0.17"></line><line x1="1150" y1="700" x2="1200" y2="750" opacity="0.17"></line><line x1="1200" y1="700" x2="1250" y2="750" opacity="0.17"></line><line x1="1300" y1="700" x2="1250" y2="750" opacity="0.17"></line><line x1="1300" y1="700" x2="1350" y2="750" opacity="0.17"></line><line x1="1350" y1="700" x2="1400" y2="750" opacity="0.17"></line><line x1="1450" y1="700" x2="1400" y2="750" opacity="0.17"></line><line x1="50" y1="750" x2="0" y2="800" opacity="0.11"></line><line x1="100" y1="750" x2="50" y2="800" opacity="0.11"></line><line x1="100" y1="750" x2="150" y2="800" opacity="0.11"></line><line x1="150" y1="750" x2="200" y2="800" opacity="0.11"></line><line x1="200" y1="750" x2="250" y2="800" opacity="0.11"></line><line x1="300" y1="750" x2="250" y2="800" opacity="0.11"></line><line x1="350" y1="750" x2="300" y2="800" opacity="0.11"></line><line x1="350" y1="750" x2="400" y2="800" opacity="0.11"></line><line x1="400" y1="750" x2="450" y2="800" opacity="0.11"></line><line x1="450" y1="750" x2="500" y2="800" opacity="0.11"></line><line x1="500" y1="750" x2="550" y2="800" opacity="0.11"></line><line x1="550" y1="750" x2="600" y2="800" opacity="0.11"></line><line x1="600" y1="750" x2="650" y2="800" opacity="0.11"></line><line x1="650" y1="750" x2="700" y2="800" opacity="0.11"></line><line x1="750" y1="750" x2="700" y2="800" opacity="0.11"></line><line x1="800" y1="750" x2="750" y2="800" opacity="0.11"></line><line x1="800" y1="750" x2="850" y2="800" opacity="0.11"></line><line x1="850" y1="750" x2="900" y2="800" opacity="0.11"></line><line x1="950" y1="750" x2="900" y2="800" opacity="0.11"></line><line x1="950" y1="750" x2="1000" y2="800" opacity="0.11"></line><line x1="1050" y1="750" x2="1000" y2="800" opacity="0.11"></line><line x1="1100" y1="750" x2="1050" y2="800" opacity="0.11"></line><line x1="1100" y1="750" x2="1150" y2="800" opacity="0.11"></line><line x1="1200" y1="750" x2="1150" y2="800" opacity="0.11"></line><line x1="1250" y1="750" x2="1200" y2="800" opacity="0.11"></line><line x1="1300" y1="750" x2="1250" y2="800" opacity="0.11"></line><line x1="1350" y1="750" x2="1300" y2="800" opacity="0.11"></line><line x1="1400" y1="750" x2="1350" y2="800" opacity="0.11"></line><line x1="1400" y1="750" x2="1450" y2="800" opacity="0.11"></line><line x1="0" y1="800" x2="50" y2="850" opacity="0.05"></line><line x1="50" y1="800" x2="100" y2="850" opacity="0.05"></line><line x1="150" y1="800" x2="100" y2="850" opacity="0.05"></line><line x1="150" y1="800" x2="200" y2="850" opacity="0.05"></line><line x1="200" y1="800" x2="250" y2="850" opacity="0.05"></line><line x1="300" y1="800" x2="250" y2="850" opacity="0.05"></line><line x1="300" y1="800" x2="350" y2="850" opacity="0.05"></line><line x1="350" y1="800" x2="400" y2="850" opacity="0.05"></line><line x1="450" y1="800" x2="400" y2="850" opacity="0.05"></line><line x1="450" y1="800" x2="500" y2="850" opacity="0.05"></line><line x1="500" y1="800" x2="550" y2="850" opacity="0.05"></line><line x1="600" y1="800" x2="550" y2="850" opacity="0.05"></line><line x1="600" y1="800" x2="650" y2="850" opacity="0.05"></line><line x1="700" y1="800" x2="650" y2="850" opacity="0.05"></line><line x1="700" y1="800" x2="750" y2="850" opacity="0.05"></line><line x1="800" y1="800" x2="750" y2="850" opacity="0.05"></line><line x1="850" y1="800" x2="800" y2="850" opacity="0.05"></line><line x1="850" y1="800" x2="900" y2="850" opacity="0.05"></line><line x1="950" y1="800" x2="900" y2="850" opacity="0.05"></line><line x1="1000" y1="800" x2="950" y2="850" opacity="0.05"></line><line x1="1000" y1="800" x2="1050" y2="850" opacity="0.05"></line><line x1="1050" y1="800" x2="1100" y2="850" opacity="0.05"></line><line x1="1150" y1="800" x2="1100" y2="850" opacity="0.05"></line><line x1="1150" y1="800" x2="1200" y2="850" opacity="0.05"></line><line x1="1250" y1="800" x2="1200" y2="850" opacity="0.05"></line><line x1="1300" y1="800" x2="1250" y2="850" opacity="0.05"></line><line x1="1300" y1="800" x2="1350" y2="850" opacity="0.05"></line><line x1="1400" y1="800" x2="1350" y2="850" opacity="0.05"></line><line x1="1450" y1="800" x2="1400" y2="850" opacity="0.05"></line></g></svg>