<?xml version="1.0" encoding="UTF-8"?><svg id="b" xmlns="http://www.w3.org/2000/svg" viewBox="0 0 1080 1080"><defs><style>.d{fill:#e5e52e;}.d,.e{stroke-width:0px;}.e{fill:#1f1a4f;}</style></defs><path class="d" d="M235.06,953.61L29.33,597.28c-20.46-35.44-20.46-79.11,0-114.56L235.06,126.39c20.46-35.44,58.28-57.28,99.21-57.28h411.46c40.93,0,78.75,21.83,99.21,57.28l205.73,356.33c20.46,35.44,20.46,79.11,0,114.56l-205.73,356.33c-20.46,35.44-58.28,57.28-99.21,57.28h-411.46c-40.93,0-78.75-21.83-99.21-57.28Z"/><path class="e" d="M304.26,799.59c-8.03,0-15.85-4.17-20.15-11.63l-136.44-236.33c-4.15-7.19-4.15-16.06,0-23.25l136.44-236.33c6.42-11.13,20.66-14.93,31.76-8.51,11.12,6.42,14.93,20.64,8.51,31.76l-129.73,224.71,129.73,224.71c6.42,11.12,2.61,25.34-8.51,31.76-3.66,2.12-7.66,3.12-11.61,3.12Z"/><path class="e" d="M775.74,799.59c-3.95,0-7.95-1-11.61-3.12-11.12-6.42-14.93-20.64-8.51-31.76l129.73-224.71-129.73-224.71c-6.42-11.12-2.61-25.34,8.51-31.76,11.1-6.42,25.34-2.62,31.76,8.51l136.45,236.33c4.15,7.19,4.15,16.06,0,23.25l-136.45,236.33c-4.3,7.46-12.12,11.63-20.15,11.63Z"/><g id="c"><path class="e" d="M431.29,655.78c3.57-13.55-5.19-26.87-11.42-39.44-9-18.11-13.26-38.52-12.28-58.64-10.78,8.82-28.25,2.36-35.81-9.34-7.55-11.71-7.96-26.52-8.01-40.48-.06-4.32-.06-8.76,1.33-12.86,2.77-8.01,10.61-13.43,18.8-15.57,8.19-2.13,16.78-1.56,25.26-.92.06-3.98.12-8.01.17-11.99-5.65-2.19-12.63.06-15.86,5.13-.4-8.71,5.77-17.24,14.18-19.6-7.61-25.02-8.88-51.89-3.69-77.5-3.63-3-4.44-8.25-4.32-12.97.29-18.62,10.32-36.21,24.28-48.55,13.95-12.34,31.54-19.89,49.47-24.91,51.49-14.42,108.4-8.48,155.86,16.26,14.47,7.5,28.43,17.01,37.83,30.33,5.42,7.61,12.11,14.18,18.05,21.39,33.79,41.11,38.63,100.96,21.51,151.36-17.13,50.34-53.57,92.2-94.79,125.87-1.04.81-2.08,1.67-3.23,2.31-7.61,6.63-19.09,8.3-28.31,4.21.35,15.34,2.25,30.68,5.71,45.67.69,2.88,2.48,6.57,5.42,6.05,23.47-4.09,45.09,15.91,53.86,38.11,8.76,22.14,8.82,46.71,14.24,69.89h-208.67c.81-21.51,3.98-43.48,14.07-62.5,10.09-19.03,28.02-34.88,49.36-37.94-.63-8.53-1.21-17.07-1.79-25.6-16.78,5.54-34.6,7.78-52.18,6.52-7.21-.52-14.7-1.67-20.7-5.71-6-4.04-10.21-11.59-8.3-18.57M530.64,651.86c-8.76,9.05-19.32,16.26-30.85,21.22,29-8.48,56.68-21.33,81.76-38.06,8.19-5.42,16.03-11.24,23.41-17.7,20.64-18.05,37.59-41.86,41.52-68.96-6,4.27-13.95,5.77-21.16,3.92,2.65-2.31,6.46-2.65,9.92-3.4,18.68-4.04,32.17-24.39,28.54-43.07-1.38-7.21-5.36-14.36-11.99-17.53-4.67-2.19-10.72-2.71-13.38-7.09-4.38,6.86-9.86,13.09-16.15,18.34-3.52,2.88-8.88-.63-10.96-4.73-2.08-4.09-3.06-9.11-6.86-11.59-3.46-2.31-8.01-1.73-12.11-.98-14.82,2.54-29.58,5.13-44.34,7.73-6.29,1.1-13.03,2.42-17.3,7.15-4.5,4.9-5.02,12.11-5.94,18.68-1.61,11.88-5.65,24.28-15.28,31.31-6.86,4.96-15.63,6.57-24.1,6.8-9.23.29-18.97-1.04-26.18-6.8-11.19-9-12.45-25.14-13.9-39.38-.58-5.48-2.36-12.17-7.78-13.2-3.69-.69-7.38,2.02-9.05,5.42-1.73,3.34-1.9,7.27-2.08,11.07-.75,15.91-2.88,33.27-14.18,44.51-1.15,1.1-1.1,2.88-1.04,4.44.46,7.09.92,14.18,1.33,21.28,3.23-9.17,12.4-15.16,21.8-17.36,9.46-2.19,19.32-1.15,28.95-.17,4.56.52,9.34,1.04,13.2,3.57,6.92,4.5,8.76,13.72,9.98,21.91.46,3.06.86,6.34-.52,9.05-1.38,2.77-5.3,4.44-7.61,2.48-4.79-4.09-12.17-.06-18.28-1.38-5.25-1.1-9.46-6.11-14.76-5.54-5.25.58-8.59,6.29-13.72,7.32-2.25.4-4.56-.12-6.86.06-2.25.12-4.79,1.33-5.3,3.52-.29,1.44.35,2.94.98,4.27,4.9,10.55,9.86,21.05,14.76,31.54,3.86-4.04,4.27-10.15,5.82-15.51,1.5-5.42,5.71-11.19,11.24-10.49,6.17.75,8.42,8.36,12.17,13.32,6,7.9,17.13,9.46,27.04,9.69,11.07.23,22.14-.46,33.1-2.08,3.17-.46,6.75-.92,9.23,1.15,2.31,1.85,2.77,5.25,1.9,8.07-.92,2.83-2.88,5.13-4.96,7.21M444.72,489.55c2.13-6.8,7.96-11.99,14.53-14.93,6.52-2.88,13.72-3.86,20.82-4.67,10.15-1.15,20.58-2.02,30.5.63,5.42,1.44,10.61,3.92,16.15,4.96,6.57,1.27,13.32.46,19.89-.29,17.18-2.02,34.37-4.09,51.49-6.11-1.21-5.42-5.65-9.51-10.38-12.45-4.73-2.88-9.92-5.07-14.18-8.65-4.15-3.46-7.09-8.07-9.98-12.63-13.95-22.26-26.12-45.61-36.38-69.77-.98-2.31-4.15-2.65-6.69-2.54-27.97.81-55.82,3.92-83.26,9.28-4.21.86-8.65,1.9-11.53,5.07-1.79,1.96-2.71,4.56-3.52,7.15-7.09,21.74-10.21,44.8-9.23,67.69,4.44,2.08,9.63,2.54,13.55,5.48,3.92,2.94,5.13,10.21.58,12.11-4.32,1.85-9.05-3.11-13.67-2.13-3.11,3.4-.52,9.05,3,12.11,3.46,3.06,7.96,5.59,9.28,10.03,5.82-3.11,13.15-3.23,19.03-.35M453.26,490.12c-1.67,3.75-1.67,7.96-1.5,11.99.35,7.55,1.38,15.11,3.17,22.49,1.61,6.57,3.98,13.32,9.17,17.64,6.17,5.19,14.93,5.71,22.95,5.07,5.59-.46,11.3-1.44,16.03-4.44,8.3-5.19,11.82-15.34,14.01-24.91,1.5-6.69,2.65-13.49,3.34-20.3.29-2.48.29-5.54-1.79-6.98-7.21-4.96-16.43-6.92-25.02-5.36-8.65,1.61-16.55,6.75-21.51,14.01-.92,1.38-1.79,2.88-3.17,3.81-1.38.98-3.4,1.21-4.61,0-1.56-1.56-.63-4.21.58-6.05,5.25-8.53,13.9-14.99,23.64-17.64,9.69-2.59,20.41-1.38,29.29,3.34-1.04-4.04-5.88-5.59-10.03-6.23-11.76-1.67-23.81-1.21-35.35,1.38-7.67,1.67-15.97,5.02-19.2,12.17M576.88,641.83c-17.87,11.3-37.13,20.53-57.26,27.33-3.75,1.27-4.04,6.4-3.63,10.32.63,5.88,1.27,11.71,1.9,17.53.58,5.48.17,12.57-5.02,14.42,11.82,2.88,23.7-3.29,34.83-8.07,10.78-4.67,22.03-8.25,33.5-10.67,2.25-.52,2.25-3.75,1.67-6.05-3.63-14.65-5.65-29.7-6-44.8M411.68,526.79c-.29,6.75-.58,13.49-.86,20.24,6.4-11.65,9.46-25.08,8.71-38.34-.06-1.04.63-1.96,1.04-2.94,1.61-3.86-1.04-8.19-4.15-10.96-1.21-1.04-2.59-2.02-4.15-1.96-1.04.06-1.96.52-2.88,1.1-7.27,4.56-11.01,14.18-8.71,22.49-3.92-3.17-6.11-8.36-5.71-13.38-7.61.98-15.11,2.88-22.26,5.59-.75.29-1.5.58-2.02,1.21-.75.92-.69,2.36-.52,3.57.92,7.09,2.13,14.18,3.63,21.22,1.38,6.63,3.52,13.9,9.34,17.41,5.77,3.46,13.09,2.02,19.49-.06,1.56-.52,3.23-1.21,4.09-2.59.58-1.04.63-2.25.69-3.4.23-5.25.46-10.49.69-15.74.17-2.88.23-5.94-1.21-8.42-4.61-7.9-3.4-18.8,2.94-25.49,1.85-1.96,5.42-.92,6.98,1.33,1.56,2.25,1.61,5.13,1.61,7.84.06,6.8-.4,14.59-5.82,18.62-.81.58-.92,1.67-.92,2.65M431.58,584.46c-3.23.98-5.94,3.52-7.03,6.69-.23.63-.4,1.33-.29,2.02.52,2.31,3.86,2.31,6,1.33,4.15-2.02,7.44-5.82,11.94-6.92,4.73-1.1,9.51,1.15,14.01,3.11,4.44,1.96,9.63,3.75,14.07,1.67-1.27-1.9-2.54-3.86-3.75-5.77-.75-1.15-1.56-2.36-2.77-2.94-1.1-.52-2.36-.52-3.57-.46-7.73.23-15.4.46-23.12.63-1.85.06-3.69.12-5.48.63M508.44,708.08c-2.02,1.33-4.15,3.17-4.09,5.59.06,3.4,4.04,5.13,7.38,5.48,10.9,1.15,21.45-3.4,31.25-8.13,5.13-2.42,10.21-4.96,15.28-7.55,0-.81-1.27-.81-2.02-.58-13.2,4.73-25.77,13.2-39.79,12.34-1.67-.12-3.4-.4-4.61-1.56-1.21-1.15-1.38-3.46,0-4.32,1.67-1.1,2.83-3,2.94-5.02-2.19,1.1-4.27,2.36-6.34,3.75M410.64,485.11c-11.24-1.21-22.83.63-33.16,5.36-.86.4-1.85,1.04-1.61,1.96,9.23-1.33,18.45-2.71,27.68-4.04,2.65-.4,5.65-.98,7.09-3.29M548.68,710.91c6-2.25,11.76-4.96,17.3-8.19.98-.52,1.9-1.1,2.42-2.02-7.15,2.02-13.9,5.54-19.72,10.21M408.57,507.36c.75.58,1.61-.63,1.73-1.56.29-2.08.23-4.21-.17-6.23-2.25,1.1-2.25,4.32-1.9,6.8.06.35.12.75.35.98"/><path class="e" d="M449.45,554.47c-2.71-.63-4.15,3.75-6.92,4.21-2.88.52-5.07-3.46-7.96-3,.75.81-1.04,1.96-1.85,1.15-.75-.81-.52-2.13-.17-3.17.4-1.5,1.21-3.29,2.71-3.23,2.02,0,2.65,3,4.56,3.46,1.96.52,3.29-1.67,4.79-3,1.73-1.44,4.27-1.79,6.34-.86,2.02.92,3.46,3.11,3.46,5.36-.23.98-1.61,1.04-2.42.58-.86-.46-1.56-1.27-2.54-1.5"/><path class="e" d="M554.62,646.79c.46-.81.86-1.56,1.33-2.36,1.85-.63,3.69-1.27,5.54-1.9,1.33-.4,2.65-.86,3.98-1.33.63-1.38,2.54-2.02,3.86-1.27-11.36,8.13-24.04,14.42-37.42,18.39-.29-1.1.92-2.02,1.96-2.54,3.92-1.96,7.9-3.98,11.88-5.94,1.38.98,3.63-.58,3.23-2.25.81-.46,1.61-.92,2.48-1.38.46-.29,1.5.12,1.04.46.4-.58.81-1.1,1.27-1.67,0,.69.35,1.38.86,1.79"/><path class="e" d="M506.94,491.97c4.27,6.23,3.34,15.4-2.02,20.64-5.42,5.25-14.65,5.94-20.76,1.56-5.42-3.92-6.75-12.17-3.57-18.05,3.11-5.88,10.03-9.28,16.72-9.05,2.42.06,4.9.58,6.86,1.96,1.1.81,2.02,1.79,2.77,2.94M488.37,496.98c0-.52-.06-1.1-.35-1.61-.81-1.33-2.88-1.04-3.98.06-1.04,1.1-1.44,2.88-.69,4.21.81,1.33,2.77,1.79,3.92.86.98-.81,1.15-2.25,1.1-3.52"/><path class="e" d="M533.52,453.39c.58,1.73-2.19,2.36-3.98,2.08-20.01-3.23-41.05.63-58.58,10.78-1.73.98-4.09.29-5.42-1.21-1.33-1.5-1.85-3.52-2.02-5.54-.12-1.21-.12-2.54.52-3.57.69-1.21,2.02-1.9,3.29-2.48,10.61-5.13,21.57-10.15,33.27-11.42,11.71-1.27,24.51,1.73,32.35,10.49.23.23.46.52.58.86"/></g></svg>