<?xml version="1.0" encoding="UTF-8"?>
<svg id="b" xmlns="http://www.w3.org/2000/svg" version="1.1" viewBox="0 0 1080 329.1">
  <defs>
    <style>
      .cls-1 {
        fill: #292e3b;
      }

      .cls-1, .cls-2 {
        stroke-width: 0px;
      }

      .cls-2 {
        fill: #e5e52e;
      }
    </style>
  </defs>
  <path class="cls-1" d="M419.9,84.6h20l-9.5,44.4c4.2-3.2,7.3-5.6,11.9-7.3,1.8-1,3.8-1.4,5.8-1.4,5.5,0,8.7,3.2,10.5,7.1,1.4,4.2,1.6,9.5.6,14.1l-14.7,69.2c-1,4.6-3.4,9.9-6.5,13.9-3.8,4.2-7.9,7.3-13.5,7.3s-7.3-2.2-9.9-4.4c-1.4-1.4-2.8-2.8-4.2-4.4l-1.4,7.1h-20l30.9-145.8h0ZM413.9,206.6c-.8,3.8,1.6,6.6,4.6,6.6s6-2.8,6.7-6.6l12.9-60.9c.8-3.8-1-6.6-4-6.6s-6.5,3.4-7.3,6.6l-12.9,60.9h0Z"/>
  <path class="cls-1" d="M510.1,142.5c-1.6-.6-3.4-.8-5.4-.8-3.2,0-7.1.4-10.9,3.4-4.6,3.2-5.8,6.6-6.5,9.9l-15.9,75.4h-20l23-108.5h20l-2.6,12.1c.6-1.4,2.6-4.8,6.4-7.9,3.8-3,9.1-5.8,16.5-5.8l-4.6,22.2h0Z"/>
  <path class="cls-1" d="M544,147.7c.6-1.8,1-4.4.8-6.6-.4-2.2-1.8-3.4-4.2-3.4-3.4,0-5.2,2.6-6.5,5.8-.6,1.6-1,3.4-1.6,5.2-.2,1-.4,1.8-.6,2.6-.2,1-.2,1.8-.4,2.6h-20l.8-4.6c1.8-7.9,6.3-15.1,12.1-20.4,6.2-5.4,13.3-8.5,21-8.5s11.9,2.4,15.7,6.9c3.8,4.6,5.2,10.5,3.6,17.6l-14.1,66.6c-2.2,9.7-2.4,14.1-2.6,18.8h-19.6c-1.4-2.2-.6-7.3,0-8.7h-1.4c-1.4,1.8-3.8,4.4-6.9,6.6-3.2,2.2-7.3,3.8-11.3,3.8s-6.5-1-8.9-5c-2.6-3.8-4-10.5-1.6-21.8,2.6-12.1,7.9-20.6,14.1-26.8,6.2-6.1,12.9-9.7,18.2-12.3,5.5-2.6,9.5-4.4,10.9-6.6l2.6-11.9h0ZM537.7,178c-10.9,4.2-16.9,13.9-19,24.2-.6,1.8-.6,3.8-.4,5.9.6,2.4,1.4,4.2,3.8,4.2,4.6,0,8.9-2.8,9.7-6.6l6-27.8h0Z"/>
  <path class="cls-1" d="M549.2,251c.2.2.6.2,1.2.2.8.2,5.5.6,9.3-1.8,3.6-2.2,6.5-5.6,8.7-9.9,1-1.8,1.6-3.8,2-5.9l5.4-111.7h19.6l-6.3,66.6-.8,5.6h.8l1.6-5.6,22.2-66.6h19.6l-44,116.6c-3,7.7-7.1,15.3-13.3,21-6.2,5.8-13.1,9.7-21,9.7h-2.4c-1.6,0-4-.2-6.3-.4l3.8-17.9h0Z"/>
  <path class="cls-1" d="M635.9,230.4h-20l23-108.5h20l-2,9.1c.4-.2,1.4-.8,2.8-2.2,1.4-1,3-2.2,4.8-3.6,3.4-2.6,7.5-5,10.9-5,5.4,0,8.5,3.2,10.1,7.1,1.4,4.2,1.6,9.5.6,14.1l-18.8,88.9h-20l18.2-85.9c.8-4.2-1.4-4.8-3.8-4.8s-3.8,1.2-5.4,2.6c-.4.4-.8.8-1.2,1.2-.4.4-.8.8-1.2,1.4l-18,85.5h0Z"/>
  <path class="cls-1" d="M736.8,123.7c1-4.8,2-10.1,1.4-14.3-.6-4-2.2-6.7-5.5-6.7-5.5.2-8.5,5.9-10.3,14.5-1,5-.2,10.1,2,15.7,2.2,5.6,4.8,11.3,7.7,17.4,3.8,7.3,6.7,14.9,9.1,22.2,2.2,7.3,3.2,14.9,1.4,22.8-2.2,9.7-5.4,18.6-11.5,25.6-6.2,6.9-14.1,11.1-26,11.1s-20.4-5.2-23-13.1c-3-7.9-1.4-18.2.8-29.4l21.4-2c-1.4,6.1-2.4,12.3-1.8,16.9.6,4.8,2.2,7.9,6.7,7.9s9.9-6.7,12.1-16.1c1-4.8,0-10.3-2.2-16.1-.6-1.4-1.2-3-1.8-4.4-.6-1.4-1.2-3-1.8-4.4-1.4-3-3-6.1-4.6-9.5-1.6-3.4-3.2-6.7-4.8-10.5-3.4-7.5-5.2-15.1-5.8-22.6-.6-3.8,0-7.7.8-11.7,1.6-7.9,5.2-16.5,11.3-23,5.8-6.3,13.7-10.9,23.8-11.1,13.3-.2,19.4,5.2,22,12.9,2.4,7.9,1.6,17.7-.2,25.8l-21.4,2h0Z"/>
  <path class="cls-1" d="M801.5,142.5c-1.6-.6-3.4-.8-5.4-.8-3.2,0-7.1.4-10.9,3.4-4.6,3.2-5.8,6.6-6.5,9.9l-15.9,75.4h-20l23-108.5h20l-2.6,12.1c.6-1.4,2.6-4.8,6.3-7.9,3.8-3,9.1-5.8,16.5-5.8l-4.6,22.2h0Z"/>
  <path class="cls-1" d="M835.4,147.7c.6-1.8,1-4.4.8-6.6-.4-2.2-1.8-3.4-4.2-3.4-3.4,0-5.2,2.6-6.5,5.8-.6,1.6-1,3.4-1.6,5.2-.2,1-.4,1.8-.6,2.6-.2,1-.2,1.8-.4,2.6h-20l.8-4.6c1.8-7.9,6.3-15.1,12.1-20.4,6.2-5.4,13.3-8.5,21-8.5s11.9,2.4,15.7,6.9c3.8,4.6,5.2,10.5,3.6,17.6l-14.1,66.6c-2.2,9.7-2.4,14.1-2.6,18.8h-19.6c-1.4-2.2-.6-7.3,0-8.7h-1.4c-1.4,1.8-3.8,4.4-6.9,6.6-3.2,2.2-7.3,3.8-11.3,3.8s-6.5-1-8.9-5c-2.6-3.8-4-10.5-1.6-21.8,2.6-12.1,7.9-20.6,14.1-26.8s12.9-9.7,18.2-12.3c5.5-2.6,9.5-4.4,10.9-6.6l2.6-11.9h0ZM829.1,178c-10.9,4.2-16.9,13.9-19,24.2-.6,1.8-.6,3.8-.4,5.9.6,2.4,1.4,4.2,3.8,4.2,4.6,0,8.9-2.8,9.7-6.6l6-27.8h0Z"/>
  <path class="cls-1" d="M901.5,230.4h-18.8l18.2-85.9c.8-4.2-2.2-4.8-4.4-4.8s-4.4,1.2-6,2.6c-1,.8-2,1.6-2.8,2.6l-18,85.5h-20l23-108.5h20l-2,9.1c.4-.2,1.4-.8,2.8-2.2,3-2.2,6.7-5,10.7-7.1,1.8-1,3.6-1.4,5.4-1.4,7.1,0,10.1,5.8,11.1,12.1.4-.2,1-.6,1.6-1.2.6-.6,1.2-1.2,2.2-1.8,3.4-3,7.1-5.4,11.3-7.5,2.2-1,4-1.6,5.5-1.6,5.4,0,8.5,3.2,10.1,7.1,1.4,4.2,1.6,9.5.6,14.1l-18.8,88.9h-18.8l18.2-85.9c.8-4.2-2.2-4.8-4.4-4.8s-4.4,1.2-6,2.6c-1,.8-2,1.6-2.8,2.6l-18,85.5h0Z"/>
  <path class="cls-1" d="M999.8,204c-3,10.5-7.3,17.9-15.9,23.6-4.2,3-9.3,4.4-15.9,4.4s-10.9-1.8-13.9-4.6c-3.2-2.8-4.8-5.9-5.5-9.7-1-4.6-1-9.3-.2-14.3l11.7-54.5c3-10.5,7.3-18.1,15.9-24.2,3.8-3,9.1-4.4,15.7-4.4s10.9,1.8,14.1,4.4,4.8,6.4,5.5,9.7c1,4.2,1.2,8.5.2,13.9l-11.7,55.7h0ZM992.7,148.9c1-4.2.8-7.3-.6-9.5-.8-1-2.2-1.6-4-1.6-3.8,0-6,2.6-7.3,5.6-1,1.6-1.6,3.4-1.8,5.6l-11.7,54.5c-1,3.8-.8,6.9.6,9.3.8,1,2.2,1.6,4,1.6,3.8,0,6-2.4,7.3-5.4,1-1.6,1.6-3.4,1.8-5.6l11.7-54.5h0Z"/>
  <path class="cls-1" d="M1051.8,149.7c.6-2.6,1.2-5.8,1-8.3-.6-2.4-1.6-4.4-4.8-4.4s-4.6,2-5.9,4.4c-1.6,2.4-2.4,5.8-3,8.3-.8,3.4.4,6.9,2.2,10.1,1.8,3.2,4.2,6.4,6.7,9.3,3.4,4.2,7.3,8.9,9.5,14.3,2.2,5.6,3.4,11.7,2,18.8-1.6,6.9-4.6,14.3-9.9,19.8-5.4,5.8-12.5,9.9-22,9.9s-18-5.4-20.6-12.3-1.8-15.1-.4-20.8h18.6c-.6,3-1.2,7.1-.6,10.3.8,3.4,2.4,6.1,6.5,6.1s8.3-6.7,9.7-13.1c1.4-6.6-3.6-13.1-8.5-19.2-3.8-4.6-7.3-8.7-9.9-14.1-2.4-5.4-3.6-11.3-2-19.2,1.4-6.4,4.2-13.7,9.1-19.4,5-5.6,11.9-9.7,21.4-9.9,11.9-.2,17.4,4.2,19.6,9.9,2.2,5.8,1.2,13.3-.2,19.4h-18.6,0Z"/>
  <path class="cls-1" d="M614.9,273c-.3,1.2-1.1,2-2.3,2s-1.5-.5-1.5-1.4,0-.4,0-.5l5.5-25.9c.3-1.3,1.1-2,2.4-2h10.4c.9,0,1.5.4,1.5,1.2,0,1.3-.9,2.2-2.2,2.2h-8.7l-2,9.7h7.7c.9,0,1.5.4,1.5,1.2,0,1.3-.9,2.2-2.2,2.2h-7.7l-2.4,11.4h0Z"/>
  <path class="cls-1" d="M646.8,254.2c.3-1.2,1.1-1.9,2.2-1.9s1.5.6,1.5,1.4c0,.2,0,.4,0,.5l-2.5,11.7c-.1.8-.2,1.4-.2,2.2,0,2.4,1.4,3.6,4.1,3.6s5.5-2,6.4-5.8l2.5-11.7c.3-1.2,1.1-1.9,2.2-1.9s1.5.5,1.5,1.4,0,.4,0,.5l-2.5,11.8c-1.2,5.7-5,8.8-10.6,8.8s-7.2-2.4-7.2-6.4,0-1.6.3-2.4l2.5-11.8h0Z"/>
  <path class="cls-1" d="M684.3,273c-.3,1.2-1.1,2-2.3,2s-1.5-.5-1.5-1.4,0-.4,0-.5l6-28.4c.3-1.2,1.1-1.9,2.3-1.9s1.5.5,1.5,1.4,0,.4,0,.5l-6,28.4Z"/>
  <path class="cls-1" d="M708.3,273c-.3,1.2-1.1,2-2.3,2s-1.5-.5-1.5-1.4,0-.4,0-.5l6-28.4c.3-1.2,1.1-1.9,2.3-1.9s1.5.5,1.5,1.4,0,.4,0,.5l-6,28.4Z"/>
  <path class="cls-1" d="M731,265.1c-.8,0-1.3-.5-1.3-1.3s.9-1.9,2-1.9h8.6c.7,0,1.2.5,1.2,1.2,0,1-.9,1.9-1.9,1.9h-8.6,0Z"/>
  <path class="cls-1" d="M777.4,248c0,1-.9,1.9-2,1.9s-.9-.2-1.5-.7c-1.3-1-2.2-1.3-3.8-1.3-3.1,0-5.8,2.3-5.8,5s1.3,3,4.9,4.2c4.7,1.6,6.6,3.6,6.6,6.9s-1.4,5.5-3.3,7.5c-2.2,2.1-5.4,3.4-8.8,3.4s-7.5-1.5-7.5-3.3.9-2.2,1.9-2.2.8.2,1.5.7c1.6,1.1,3,1.6,4.7,1.6,3.8,0,7.5-3.4,7.5-7s-1.3-3.2-5.1-4.5c-4.6-1.5-6.4-3.4-6.4-6.4,0-4.8,4.9-9.1,10.5-9.1s6.6,1.5,6.6,3.2h0Z"/>
  <path class="cls-1" d="M799,247.8c.3-1.2,1.1-1.9,2.3-1.9s1.5.6,1.5,1.4c0,.2,0,.4,0,.5l-1,4.8h1.5c1,0,1.5.4,1.5,1.1,0,1.2-.8,2-2.2,2h-1.5l-3.6,17.2c-.3,1.2-1.1,2-2.3,2s-1.5-.5-1.5-1.4,0-.4,0-.5l3.7-17.2h-1.5c-1,0-1.5-.4-1.5-1.1,0-1.2.8-2,2.2-2h1.5l1-4.8h0Z"/>
  <path class="cls-1" d="M837.4,254.1c.2-1.1,1.1-1.8,2-1.8s1.4.6,1.4,1.3v.5s-4.1,19-4.1,19c-.2,1.1-1.1,1.8-2.1,1.8s-1.4-.6-1.4-1.3c0-.1,0-.3,0-.5l.3-1.5h0c-1.8,2.2-4.1,3.3-6.8,3.3-4.5,0-7.6-3.4-7.6-8.4s1.3-6.9,3.3-9.6c2.3-2.9,5.5-4.6,9.1-4.6s3.8.9,5.4,3.6l.4-1.7h0ZM822.9,266.4c0,3.5,1.6,5.4,4.6,5.4,4.3,0,8.1-5,8.1-10.9s-1.6-5.4-4.6-5.4c-4.3,0-8.1,5.1-8.1,11Z"/>
  <path class="cls-1" d="M875.9,254.8c0,1-.9,1.8-1.9,1.8s-.8-.1-1.4-.5c-1.1-.5-1.6-.7-2.7-.7-4.5,0-8.4,5-8.4,10.7s1.7,5.6,4.9,5.6,2-.2,3.2-.8c.7-.4,1-.4,1.4-.4.7,0,1.1.4,1.1,1.1,0,1.8-2.8,3.3-6.3,3.3-5,0-8.1-3.1-8.1-8.4s1.3-7,3.3-9.7c2.3-3,5.6-4.6,9.5-4.6s5.3,1,5.3,2.5h0Z"/>
  <path class="cls-1" d="M894.2,273c-.3,1.2-1.1,2-2.3,2s-1.5-.5-1.5-1.4,0-.4,0-.5l6-28.4c.3-1.2,1.1-1.9,2.3-1.9s1.5.5,1.5,1.4,0,.4,0,.5l-3.3,15.6,9.4-6.6c1.2-.9,1.7-1.1,2.3-1.1s1.2.5,1.2,1.2-.3,1.3-1.3,1.9l-9.7,6.6,7.6,9.5c.3.4.5.9.5,1.3,0,1.1-.8,2-2,2s-1.2-.4-1.8-1.1l-7.2-9.6-1.9,8.8h0Z"/>
  <path class="cls-1" d="M957,247.1c.3-1.3,1.1-2,2.4-2h7.2c6.4,0,10.4,4.1,10.4,10.6s-2.3,11.4-5.8,14.8c-2.7,2.7-6.4,4.2-10.5,4.2h-7.7c-1,0-1.6-.5-1.6-1.5s0-.4,0-.5l5.5-25.6h0ZM955.4,271.5h5.2c4,0,7.4-2.1,9.8-6.1,1.6-2.7,2.6-6.2,2.6-9.6,0-5-2.7-7.6-7.7-7.6h-5l-5,23.3h0Z"/>
  <path class="cls-1" d="M997.3,265c0,.7-.2,1.5-.2,1.9,0,3.1,2,4.9,5.3,4.9s4-.6,6.3-2.2c1-.7,1.3-.8,1.7-.8.6,0,1,.5,1,1.2,0,2.3-5.5,5-10,5s-7.9-3.1-7.9-8.2,1.2-6.9,3.3-9.6c2.3-3.1,5.7-4.8,9.4-4.8s7.5,3.4,7.5,8.3-.7,4.4-2.7,4.4h-13.8ZM1010,262.3c.2-.9.2-1.3.2-1.8,0-3.2-1.7-5-4.8-5s-6.2,2.4-7.5,6.8h12.1,0Z"/>
  <path class="cls-1" d="M1045.7,253.7c.6-1,1.2-1.4,2.2-1.4s1.4.5,1.4,1.3-.1.8-.8,1.9l-10.2,17.8c-.8,1.3-1.1,1.6-2.2,1.6s-1.4-.4-1.6-1.6l-2.6-17.8v-.4c0-.2,0-.4,0-.6,0-1.3.9-2.2,2.1-2.2s1.5.4,1.6,1.4l1.8,15.3h0l8.2-15.3h0Z"/>
  <path class="cls-1" d="M1066.3,272.4c0,1.3-1.2,2.5-2.6,2.5s-1.7-.8-1.7-1.7,1.2-2.5,2.6-2.5,1.7.8,1.7,1.7Z"/>
  <path class="cls-2" d="M82.9,304.6L13.3,184c-6.9-12-6.9-26.8,0-38.8L82.9,24.5c6.9-12,19.7-19.4,33.6-19.4h139.3c13.9,0,26.7,7.4,33.6,19.4l69.6,120.6c6.9,12,6.9,26.8,0,38.8l-69.6,120.6c-6.9,12-19.7,19.4-33.6,19.4H116.5c-13.8,0-26.7-7.4-33.6-19.4h0Z"/>
  <path class="cls-1" d="M106.3,252.4c-2.7,0-5.4-1.4-6.8-3.9l-46.2-80c-1.4-2.4-1.4-5.4,0-7.9l46.2-80c2.2-3.8,7-5.1,10.8-2.9,3.8,2.2,5.1,7,2.9,10.8l-43.9,76.1,43.9,76.1c2.2,3.8.9,8.6-2.9,10.8-1.2.7-2.6,1.1-3.9,1.1h0Z"/>
  <path class="cls-1" d="M266,252.4c-1.3,0-2.7-.3-3.9-1.1-3.8-2.2-5-7-2.9-10.8l43.9-76.1-43.9-76.1c-2.2-3.8-.9-8.6,2.9-10.8s8.6-.9,10.8,2.9l46.2,80c1.4,2.4,1.4,5.4,0,7.9l-46.2,80c-1.5,2.5-4.1,3.9-6.8,3.9h0Z"/>
  <g id="c">
    <path class="cls-1" d="M149.4,203.8c1.2-4.6-1.8-9.1-3.9-13.4-3.1-6.1-4.5-13-4.2-19.9-3.6,3-9.6.8-12.1-3.2s-2.7-9-2.7-13.7c0-1.5,0-3,.4-4.4.9-2.7,3.6-4.6,6.4-5.3,2.8-.7,5.7-.5,8.6-.3,0-1.4,0-2.7,0-4.1-1.9-.7-4.3,0-5.4,1.7-.1-2.9,1.9-5.8,4.8-6.6-2.6-8.5-3-17.6-1.2-26.2-1.2-1-1.5-2.8-1.5-4.4.1-6.3,3.5-12.3,8.2-16.4,4.7-4.2,10.7-6.7,16.8-8.4,17.4-4.9,36.7-2.9,52.8,5.5,4.9,2.5,9.6,5.8,12.8,10.3,1.8,2.6,4.1,4.8,6.1,7.2,11.4,13.9,13.1,34.2,7.3,51.2-5.8,17-18.1,31.2-32.1,42.6-.4.3-.7.6-1.1.8-2.6,2.2-6.5,2.8-9.6,1.4.1,5.2.8,10.4,1.9,15.5.2,1,.8,2.2,1.8,2.1,7.9-1.4,15.3,5.4,18.2,12.9,3,7.5,3,15.8,4.8,23.7h-70.6c.3-7.3,1.4-14.7,4.8-21.2,3.4-6.4,9.5-11.8,16.7-12.8-.2-2.9-.4-5.8-.6-8.7-5.7,1.9-11.7,2.6-17.7,2.2-2.4-.2-5-.6-7-1.9-2-1.4-3.4-3.9-2.8-6.3M183,202.4c-3,3.1-6.5,5.5-10.4,7.2,9.8-2.9,19.2-7.2,27.7-12.9,2.8-1.8,5.4-3.8,7.9-6,7-6.1,12.7-14.2,14.1-23.4-2,1.4-4.7,1.9-7.2,1.3.9-.8,2.2-.9,3.4-1.1,6.3-1.4,10.9-8.3,9.7-14.6-.5-2.4-1.8-4.9-4.1-5.9-1.6-.7-3.6-.9-4.5-2.4-1.5,2.3-3.3,4.4-5.5,6.2-1.2,1-3-.2-3.7-1.6-.7-1.4-1-3.1-2.3-3.9-1.2-.8-2.7-.6-4.1-.3-5,.9-10,1.7-15,2.6-2.1.4-4.4.8-5.9,2.4-1.5,1.7-1.7,4.1-2,6.3-.6,4-1.9,8.2-5.2,10.6-2.3,1.7-5.3,2.2-8.2,2.3-3.1.1-6.4-.4-8.9-2.3-3.8-3.1-4.2-8.5-4.7-13.3-.2-1.9-.8-4.1-2.6-4.5-1.2-.2-2.5.7-3.1,1.8-.6,1.1-.6,2.5-.7,3.8-.2,5.4-1,11.3-4.8,15.1-.4.4-.4,1-.4,1.5.2,2.4.3,4.8.4,7.2,1.1-3.1,4.2-5.1,7.4-5.9,3.2-.7,6.5-.4,9.8,0,1.5.2,3.2.4,4.5,1.2,2.3,1.5,3,4.6,3.4,7.4.2,1,.3,2.1-.2,3.1-.5.9-1.8,1.5-2.6.8-1.6-1.4-4.1,0-6.2-.5-1.8-.4-3.2-2.1-5-1.9-1.8.2-2.9,2.1-4.6,2.5-.8.1-1.5,0-2.3,0-.8,0-1.6.4-1.8,1.2-.1.5.1,1,.3,1.4,1.7,3.6,3.3,7.1,5,10.7,1.3-1.4,1.4-3.4,2-5.2.5-1.8,1.9-3.8,3.8-3.6,2.1.2,2.9,2.8,4.1,4.5,2,2.7,5.8,3.2,9.1,3.3,3.8,0,7.5-.2,11.2-.7,1.1-.2,2.3-.3,3.1.4.8.6.9,1.8.6,2.7-.3,1-1,1.7-1.7,2.4M153.9,147.5c.7-2.3,2.7-4.1,4.9-5.1,2.2-1,4.6-1.3,7.1-1.6,3.4-.4,7-.7,10.3.2,1.8.5,3.6,1.3,5.5,1.7,2.2.4,4.5.2,6.7-.1,5.8-.7,11.6-1.4,17.4-2.1-.4-1.8-1.9-3.2-3.5-4.2-1.6-1-3.4-1.7-4.8-2.9-1.4-1.2-2.4-2.7-3.4-4.3-4.7-7.5-8.8-15.4-12.3-23.6-.3-.8-1.4-.9-2.3-.9-9.5.3-18.9,1.3-28.2,3.1-1.4.3-2.9.6-3.9,1.7-.6.7-.9,1.5-1.2,2.4-2.4,7.4-3.4,15.2-3.1,22.9,1.5.7,3.3.9,4.6,1.9,1.3,1,1.7,3.4.2,4.1-1.5.6-3.1-1.1-4.6-.7-1.1,1.1-.2,3.1,1,4.1,1.2,1,2.7,1.9,3.1,3.4,2-1.1,4.4-1.1,6.4-.1M156.8,147.7c-.6,1.3-.6,2.7-.5,4.1.1,2.6.5,5.1,1.1,7.6.6,2.2,1.4,4.5,3.1,6,2.1,1.8,5.1,1.9,7.8,1.7,1.9-.2,3.8-.5,5.4-1.5,2.8-1.8,4-5.2,4.7-8.4.5-2.3.9-4.6,1.1-6.9.1-.8.1-1.9-.6-2.4-2.4-1.7-5.6-2.3-8.5-1.8-2.9.6-5.6,2.3-7.3,4.7-.3.5-.6,1-1.1,1.3-.5.3-1.1.4-1.6,0s-.2-1.4.2-2.1c1.8-2.9,4.7-5.1,8-6,3.3-.9,6.9-.5,9.9,1.1-.4-1.4-2-1.9-3.4-2.1-4-.6-8.1-.4-12,.5-2.6.6-5.4,1.7-6.5,4.1M198.6,199c-6.1,3.8-12.6,6.9-19.4,9.2-1.3.4-1.4,2.2-1.2,3.5.2,2,.4,4,.6,5.9.2,1.9,0,4.3-1.7,4.9,4,1,8-1.1,11.8-2.7,3.6-1.6,7.5-2.8,11.3-3.6.8-.2.8-1.3.6-2.1-1.2-5-1.9-10.1-2-15.2M142.7,160.1c-.1,2.3-.2,4.6-.3,6.9,2.2-3.9,3.2-8.5,2.9-13,0-.4.2-.7.4-1,.6-1.3-.4-2.8-1.4-3.7-.4-.4-.9-.7-1.4-.7-.4,0-.7.2-1,.4-2.5,1.5-3.7,4.8-2.9,7.6-1.3-1.1-2.1-2.8-1.9-4.5-2.6.3-5.1,1-7.5,1.9-.2.1-.5.2-.7.4-.2.3-.2.8-.2,1.2.3,2.4.7,4.8,1.2,7.2.5,2.2,1.2,4.7,3.2,5.9,1.9,1.2,4.4.7,6.6,0,.5-.2,1.1-.4,1.4-.9.2-.4.2-.8.2-1.1,0-1.8.2-3.6.2-5.3,0-1,0-2-.4-2.9-1.6-2.7-1.1-6.4,1-8.6.6-.7,1.8-.3,2.4.4s.6,1.7.6,2.6c0,2.3-.1,4.9-2,6.3-.3.2-.3.6-.3.9M149.4,179.6c-1.1.3-2,1.2-2.4,2.3,0,.2-.1.4-.1.7.2.8,1.3.8,2,.4,1.4-.7,2.5-2,4-2.3,1.6-.4,3.2.4,4.7,1.1,1.5.7,3.3,1.3,4.8.6-.4-.6-.9-1.3-1.3-1.9-.2-.4-.5-.8-.9-1-.4-.2-.8-.2-1.2-.2-2.6,0-5.2.2-7.8.2-.6,0-1.2,0-1.9.2M175.5,221.5c-.7.4-1.4,1.1-1.4,1.9,0,1.1,1.4,1.7,2.5,1.9,3.7.4,7.3-1.1,10.6-2.8,1.7-.8,3.4-1.7,5.2-2.6,0-.3-.4-.3-.7-.2-4.5,1.6-8.7,4.5-13.5,4.2-.6,0-1.1-.1-1.6-.5s-.5-1.2,0-1.5c.6-.4,1-1,1-1.7-.7.4-1.4.8-2.1,1.3M142.4,146c-3.8-.4-7.7.2-11.2,1.8-.3.1-.6.4-.6.7,3.1-.4,6.2-.9,9.4-1.4.9-.1,1.9-.3,2.4-1.1M189.1,222.4c2-.8,4-1.7,5.9-2.8.3-.2.6-.4.8-.7-2.4.7-4.7,1.9-6.7,3.4M141.7,153.5c.2.2.6-.2.6-.5.1-.7,0-1.4,0-2.1-.8.4-.8,1.5-.6,2.3,0,.1,0,.2.1.3"/>
    <path class="cls-1" d="M155.5,169.5c-.9-.2-1.4,1.3-2.3,1.4-1,.2-1.7-1.2-2.7-1,.2.3-.4.7-.6.4-.2-.3-.2-.7,0-1.1.1-.5.4-1.1.9-1.1.7,0,.9,1,1.5,1.2.7.2,1.1-.6,1.6-1,.6-.5,1.4-.6,2.1-.3.7.3,1.2,1.1,1.2,1.8,0,.3-.6.4-.8.2-.3-.2-.5-.4-.9-.5"/>
    <path class="cls-1" d="M191.1,200.7c.2-.3.3-.5.4-.8.6-.2,1.2-.4,1.9-.6.4-.1.9-.3,1.4-.4.2-.5.9-.7,1.3-.4-3.9,2.8-8.1,4.9-12.7,6.2-.1-.4.3-.7.7-.9,1.3-.7,2.7-1.4,4-2,.5.3,1.2-.2,1.1-.8.3-.2.6-.3.8-.5.2-.1.5,0,.4.2.1-.2.3-.4.4-.6,0,.2.1.5.3.6"/>
    <path class="cls-1" d="M175,148.3c1.4,2.1,1.1,5.2-.7,7-1.8,1.8-5,2-7,.5-1.8-1.3-2.3-4.1-1.2-6.1,1.1-2,3.4-3.1,5.7-3.1.8,0,1.7.2,2.3.7.4.3.7.6.9,1M168.7,150c0-.2,0-.4-.1-.6-.3-.4-1-.4-1.4,0-.4.4-.5,1-.2,1.4.3.4.9.6,1.3.3.3-.3.4-.8.4-1.2"/>
    <path class="cls-1" d="M184,135.2c.2.6-.7.8-1.4.7-6.8-1.1-13.9.2-19.8,3.6-.6.3-1.4.1-1.8-.4-.4-.5-.6-1.2-.7-1.9,0-.4,0-.9.2-1.2.2-.4.7-.6,1.1-.8,3.6-1.7,7.3-3.4,11.3-3.9,4-.4,8.3.6,10.9,3.6,0,0,.2.2.2.3"/>
  </g>
</svg>