<?xml version="1.0" encoding="UTF-8"?><svg id="b" xmlns="http://www.w3.org/2000/svg" viewBox="0 0 1080 329.14"><defs><style>.d{fill:#e5e52e;}.d,.e{stroke-width:0px;}.e{fill:#1f1a4f;}</style></defs><path class="e" d="M419.88,84.61h20.03l-9.52,44.43c4.17-3.17,7.34-5.55,11.9-7.34,1.78-.99,3.77-1.39,5.75-1.39,5.55,0,8.73,3.17,10.51,7.14,1.39,4.17,1.59,9.52.59,14.08l-14.68,69.22c-.99,4.56-3.37,9.92-6.55,13.88-3.77,4.16-7.93,7.34-13.49,7.34-3.77,0-7.34-2.18-9.92-4.36-1.39-1.39-2.78-2.78-4.17-4.36l-1.39,7.14h-20.03l30.94-145.78ZM413.93,206.59c-.79,3.77,1.59,6.55,4.56,6.55s5.95-2.78,6.74-6.55l12.89-60.89c.79-3.77-.99-6.55-3.97-6.55s-6.55,3.37-7.34,6.55l-12.89,60.89Z"/><path class="e" d="M510.13,142.52c-1.59-.59-3.37-.79-5.35-.79-3.17,0-7.14.4-10.91,3.37-4.56,3.17-5.75,6.55-6.55,9.92l-15.87,75.37h-20.03l23.01-108.49h20.03l-2.58,12.1c.59-1.39,2.58-4.76,6.35-7.93,3.77-2.97,9.12-5.75,16.46-5.75l-4.56,22.21Z"/><path class="e" d="M544.04,147.68c.6-1.78.99-4.36.79-6.55-.4-2.18-1.78-3.37-4.16-3.37-3.37,0-5.16,2.58-6.55,5.75-.6,1.59-.99,3.37-1.59,5.16-.2.99-.4,1.79-.59,2.58-.2.99-.2,1.79-.4,2.58h-20.03l.79-4.56c1.79-7.93,6.35-15.07,12.1-20.43,6.15-5.36,13.29-8.53,21.02-8.53,6.55,0,11.9,2.38,15.67,6.94,3.77,4.56,5.16,10.51,3.57,17.65l-14.08,66.64c-2.18,9.72-2.38,14.08-2.58,18.84h-19.64c-1.39-2.18-.59-7.34,0-8.73h-1.39c-1.39,1.78-3.77,4.36-6.94,6.55-3.17,2.18-7.34,3.77-11.31,3.77-2.58,0-6.55-.99-8.93-4.96-2.58-3.77-3.97-10.51-1.59-21.82,2.58-12.1,7.93-20.63,14.08-26.78,6.15-6.15,12.89-9.72,18.25-12.3,5.55-2.58,9.52-4.36,10.91-6.55l2.58-11.9ZM537.69,178.03c-10.91,4.17-16.86,13.88-19.04,24.2-.59,1.79-.59,3.77-.4,5.95.6,2.38,1.39,4.16,3.77,4.16,4.56,0,8.93-2.78,9.72-6.55l5.95-27.77Z"/><path class="e" d="M549.2,251.01c.2.2.59.2,1.19.2.79.2,5.55.59,9.32-1.79,3.57-2.18,6.55-5.55,8.73-9.92.99-1.79,1.59-3.77,1.98-5.95l5.36-111.67h19.64l-6.35,66.64-.79,5.55h.79l1.59-5.55,22.21-66.64h19.64l-44.03,116.62c-2.98,7.74-7.14,15.27-13.29,21.02-6.15,5.75-13.09,9.72-21.02,9.72h-2.38c-1.59,0-3.97-.2-6.35-.4l3.77-17.85Z"/><path class="e" d="M635.87,230.39h-20.03l23.01-108.49h20.03l-1.98,9.12c.4-.2,1.39-.79,2.78-2.18,1.39-.99,2.97-2.18,4.76-3.57,3.37-2.58,7.54-4.96,10.91-4.96,5.36,0,8.53,3.17,10.12,7.14,1.39,4.17,1.59,9.52.6,14.08l-18.84,88.86h-20.03l18.25-85.88c.79-4.17-1.39-4.76-3.77-4.76-2.18,0-3.77,1.19-5.36,2.58-.4.4-.79.79-1.19,1.19-.4.4-.79.79-1.19,1.39l-18.05,85.48Z"/><path class="e" d="M736.83,123.68c.99-4.76,1.98-10.12,1.39-14.28-.59-3.97-2.18-6.74-5.55-6.74-5.55.2-8.53,5.95-10.31,14.48-.99,4.96-.2,10.12,1.98,15.67,2.18,5.55,4.76,11.31,7.74,17.45,3.77,7.34,6.74,14.88,9.12,22.21,2.18,7.34,3.17,14.88,1.39,22.81-2.18,9.72-5.36,18.64-11.5,25.59-6.15,6.94-14.08,11.11-25.98,11.11-13.68,0-20.43-5.16-23.01-13.09-2.98-7.93-1.39-18.25.79-29.35l21.42-1.98c-1.39,6.15-2.38,12.3-1.78,16.86.59,4.76,2.18,7.93,6.74,7.93,6.35,0,9.92-6.74,12.1-16.07.99-4.76,0-10.31-2.18-16.07-.6-1.39-1.19-2.98-1.78-4.36-.6-1.39-1.19-2.98-1.79-4.36-1.39-2.97-2.97-6.15-4.56-9.52-1.59-3.37-3.17-6.74-4.76-10.51-3.37-7.54-5.16-15.07-5.75-22.61-.59-3.77,0-7.74.79-11.7,1.59-7.93,5.16-16.46,11.31-23.01,5.75-6.35,13.68-10.91,23.8-11.11,13.29-.2,19.44,5.16,22.02,12.89,2.38,7.93,1.59,17.65-.2,25.78l-21.42,1.98Z"/><path class="e" d="M801.49,142.52c-1.59-.59-3.37-.79-5.36-.79-3.17,0-7.14.4-10.91,3.37-4.56,3.17-5.75,6.55-6.54,9.92l-15.87,75.37h-20.03l23.01-108.49h20.03l-2.58,12.1c.6-1.39,2.58-4.76,6.35-7.93,3.77-2.97,9.12-5.75,16.46-5.75l-4.56,22.21Z"/><path class="e" d="M835.4,147.68c.6-1.78.99-4.36.79-6.55-.4-2.18-1.79-3.37-4.17-3.37-3.37,0-5.16,2.58-6.54,5.75-.6,1.59-.99,3.37-1.59,5.16-.2.99-.4,1.79-.6,2.58-.2.99-.2,1.79-.4,2.58h-20.03l.79-4.56c1.78-7.93,6.35-15.07,12.1-20.43,6.15-5.36,13.29-8.53,21.02-8.53,6.55,0,11.9,2.38,15.67,6.94,3.77,4.56,5.16,10.51,3.57,17.65l-14.08,66.64c-2.18,9.72-2.38,14.08-2.58,18.84h-19.64c-1.39-2.18-.6-7.34,0-8.73h-1.39c-1.39,1.78-3.77,4.36-6.94,6.55-3.17,2.18-7.34,3.77-11.3,3.77-2.58,0-6.54-.99-8.93-4.96-2.58-3.77-3.97-10.51-1.59-21.82,2.58-12.1,7.93-20.63,14.08-26.78,6.15-6.15,12.89-9.72,18.25-12.3,5.55-2.58,9.52-4.36,10.91-6.55l2.58-11.9ZM829.06,178.03c-10.91,4.17-16.86,13.88-19.04,24.2-.6,1.79-.6,3.77-.4,5.95.6,2.38,1.39,4.16,3.77,4.16,4.56,0,8.92-2.78,9.72-6.55l5.95-27.77Z"/><path class="e" d="M901.45,230.39h-18.84l18.25-85.88c.79-4.17-2.18-4.76-4.36-4.76s-4.36,1.19-5.95,2.58c-.99.79-1.98,1.59-2.78,2.58l-18.05,85.48h-20.03l23.01-108.49h20.03l-1.98,9.12c.4-.2,1.39-.79,2.78-2.18,2.97-2.18,6.74-4.96,10.71-7.14,1.79-.99,3.57-1.39,5.36-1.39,7.14,0,10.12,5.75,11.11,12.1.4-.2.99-.59,1.59-1.19.6-.59,1.19-1.19,2.18-1.78,3.37-2.98,7.14-5.36,11.31-7.54,2.18-.99,3.97-1.59,5.55-1.59,5.36,0,8.53,3.17,10.12,7.14,1.39,4.17,1.59,9.52.6,14.08l-18.84,88.86h-18.84l18.25-85.88c.79-4.17-2.18-4.76-4.36-4.76s-4.36,1.19-5.95,2.58c-.99.79-1.98,1.59-2.78,2.58l-18.05,85.48Z"/><path class="e" d="M999.83,204.01c-2.98,10.51-7.34,17.85-15.87,23.6-4.16,2.98-9.32,4.36-15.87,4.36s-10.91-1.79-13.88-4.56c-3.17-2.78-4.76-5.95-5.55-9.72-.99-4.56-.99-9.32-.2-14.28l11.7-54.54c2.98-10.51,7.34-18.05,15.87-24.2,3.77-2.97,9.12-4.36,15.67-4.36s10.91,1.78,14.08,4.36,4.76,6.35,5.55,9.72c.99,4.16,1.19,8.53.2,13.88l-11.7,55.73ZM992.69,148.87c.99-4.16.79-7.34-.6-9.52-.79-.99-2.18-1.59-3.97-1.59-3.77,0-5.95,2.58-7.34,5.55-.99,1.59-1.59,3.37-1.79,5.55l-11.7,54.54c-.99,3.77-.79,6.94.6,9.32.79.99,2.18,1.59,3.97,1.59,3.77,0,5.95-2.38,7.34-5.36.99-1.59,1.59-3.37,1.79-5.55l11.7-54.54Z"/><path class="e" d="M1051.79,149.66c.6-2.58,1.19-5.75.99-8.33-.6-2.38-1.59-4.36-4.76-4.36-2.58,0-4.56,1.98-5.95,4.36-1.59,2.38-2.38,5.75-2.98,8.33-.79,3.37.4,6.94,2.18,10.12,1.79,3.17,4.17,6.35,6.74,9.32,3.37,4.17,7.34,8.93,9.52,14.28,2.18,5.55,3.37,11.7,1.98,18.84-1.59,6.94-4.56,14.28-9.92,19.83-5.36,5.75-12.5,9.92-22.02,9.92-12.1,0-18.05-5.36-20.63-12.3-2.58-6.94-1.78-15.07-.4-20.83h18.64c-.6,2.97-1.19,7.14-.6,10.31.79,3.37,2.38,6.15,6.54,6.15,5.75,0,8.33-6.74,9.72-13.09,1.39-6.55-3.57-13.09-8.53-19.24-3.77-4.56-7.34-8.73-9.92-14.08-2.38-5.35-3.57-11.31-1.98-19.24,1.39-6.35,4.16-13.69,9.12-19.44,4.96-5.55,11.9-9.72,21.42-9.92,11.9-.2,17.45,4.16,19.64,9.92,2.18,5.75,1.19,13.29-.2,19.44h-18.64Z"/><path class="e" d="M614.89,272.95c-.27,1.24-1.11,1.95-2.26,1.95-.89,0-1.46-.53-1.46-1.42,0-.22,0-.36.04-.53l5.5-25.9c.31-1.33,1.11-2,2.39-2h10.38c.93,0,1.46.44,1.46,1.24,0,1.29-.89,2.17-2.17,2.17h-8.69l-2.04,9.67h7.67c.93,0,1.46.44,1.46,1.24,0,1.29-.89,2.17-2.22,2.17h-7.67l-2.39,11.4Z"/><path class="e" d="M646.78,254.24c.27-1.24,1.06-1.95,2.22-1.95.93,0,1.55.58,1.51,1.42,0,.18-.04.35-.09.53l-2.48,11.71c-.13.75-.22,1.42-.22,2.22,0,2.35,1.37,3.59,4.08,3.59,3.33,0,5.54-2.04,6.39-5.81l2.48-11.71c.27-1.24,1.06-1.95,2.22-1.95.89,0,1.46.53,1.46,1.42,0,.31,0,.35-.04.53l-2.53,11.84c-1.2,5.68-4.97,8.83-10.6,8.83-4.48,0-7.18-2.39-7.18-6.39,0-.75.09-1.6.27-2.44l2.53-11.84Z"/><path class="e" d="M684.31,272.95c-.27,1.24-1.11,1.95-2.26,1.95-.89,0-1.46-.53-1.46-1.42,0-.22,0-.36.04-.53l6.03-28.43c.27-1.24,1.11-1.95,2.26-1.95.93,0,1.46.53,1.46,1.42,0,.22,0,.35-.04.53l-6.03,28.43Z"/><path class="e" d="M708.3,272.95c-.27,1.24-1.11,1.95-2.26,1.95-.89,0-1.46-.53-1.46-1.42,0-.22,0-.36.04-.53l6.03-28.43c.27-1.24,1.11-1.95,2.26-1.95.93,0,1.46.53,1.46,1.42,0,.22,0,.35-.04.53l-6.03,28.43Z"/><path class="e" d="M730.97,265.11c-.75,0-1.29-.53-1.29-1.29,0-.98.93-1.86,1.95-1.86h8.56c.71,0,1.24.53,1.24,1.24,0,1.02-.89,1.91-1.91,1.91h-8.56Z"/><path class="e" d="M777.4,247.99c0,1.02-.93,1.91-1.95,1.91-.49,0-.89-.18-1.55-.67-1.29-.97-2.17-1.29-3.77-1.29-3.1,0-5.76,2.31-5.76,5.01,0,1.86,1.33,3.02,4.88,4.21,4.7,1.64,6.56,3.59,6.56,6.87,0,2.48-1.37,5.5-3.32,7.49-2.17,2.13-5.41,3.37-8.83,3.37-4.03,0-7.49-1.55-7.49-3.28,0-1.11.93-2.17,1.91-2.17.4,0,.8.18,1.55.71,1.6,1.11,3.01,1.6,4.7,1.6,3.81,0,7.49-3.41,7.49-6.96,0-2-1.33-3.19-5.1-4.48-4.57-1.55-6.39-3.37-6.39-6.43,0-4.83,4.92-9.09,10.47-9.09,3.55,0,6.61,1.46,6.61,3.19Z"/><path class="e" d="M799,247.77c.27-1.24,1.06-1.95,2.26-1.95.89,0,1.51.58,1.46,1.42,0,.18-.04.35-.09.53l-1.02,4.79h1.51c.98,0,1.55.4,1.55,1.15,0,1.24-.84,2-2.22,2h-1.51l-3.64,17.25c-.27,1.24-1.11,1.95-2.26,1.95-.89,0-1.46-.53-1.46-1.42,0-.22,0-.36.04-.53l3.68-17.25h-1.51c-.98,0-1.55-.4-1.55-1.15,0-1.24.84-2,2.22-2h1.51l1.02-4.79Z"/><path class="e" d="M837.41,254.11c.22-1.11,1.06-1.82,2.04-1.82.8,0,1.42.58,1.42,1.33l-.04.49-4.08,18.98c-.22,1.11-1.06,1.82-2.09,1.82-.8,0-1.42-.62-1.37-1.33,0-.13.04-.31.09-.49l.31-1.51h-.09c-1.82,2.22-4.08,3.33-6.79,3.33-4.52,0-7.58-3.42-7.58-8.38,0-3.24,1.29-6.92,3.33-9.62,2.26-2.93,5.54-4.61,9.09-4.61,2.39,0,3.81.93,5.36,3.55l.4-1.73ZM822.91,266.39c0,3.46,1.64,5.37,4.61,5.37,4.35,0,8.12-5.05,8.12-10.91,0-3.5-1.64-5.41-4.61-5.41-4.35,0-8.12,5.1-8.12,10.95Z"/><path class="e" d="M875.91,254.82c0,.98-.89,1.82-1.91,1.82-.4,0-.75-.13-1.42-.49-1.06-.53-1.64-.71-2.66-.71-4.48,0-8.38,5.01-8.38,10.73,0,3.59,1.73,5.59,4.88,5.59,1.15,0,1.95-.22,3.24-.84.71-.36,1.02-.44,1.42-.44.67,0,1.11.44,1.11,1.15,0,1.82-2.79,3.28-6.3,3.28-5.05,0-8.07-3.15-8.07-8.38,0-3.19,1.33-7.05,3.33-9.67,2.26-2.97,5.59-4.57,9.45-4.57,3.1,0,5.32,1.02,5.32,2.53Z"/><path class="e" d="M894.19,272.95c-.27,1.24-1.11,1.95-2.26,1.95-.89,0-1.46-.53-1.46-1.42,0-.18,0-.36.04-.53l6.03-28.43c.27-1.24,1.11-1.95,2.26-1.95.89,0,1.46.53,1.46,1.42,0,.22,0,.35-.04.53l-3.33,15.57,9.4-6.65c1.2-.89,1.73-1.15,2.35-1.15.71,0,1.2.49,1.2,1.24,0,.84-.31,1.33-1.29,1.95l-9.71,6.56,7.63,9.53c.31.4.53.93.53,1.33,0,1.15-.84,2-1.95,2-.67,0-1.24-.36-1.82-1.15l-7.18-9.62-1.86,8.83Z"/><path class="e" d="M956.95,247.06c.27-1.29,1.11-2,2.39-2h7.18c6.39,0,10.42,4.08,10.42,10.6,0,5.32-2.35,11.35-5.77,14.81-2.66,2.66-6.43,4.17-10.47,4.17h-7.67c-1.02,0-1.6-.53-1.6-1.46,0-.18,0-.35.04-.53l5.45-25.59ZM955.4,271.49h5.23c3.99,0,7.36-2.13,9.8-6.08,1.64-2.71,2.62-6.25,2.62-9.58,0-4.97-2.7-7.63-7.71-7.63h-4.97l-4.97,23.28Z"/><path class="e" d="M997.26,265.02c-.09.71-.18,1.46-.18,1.86,0,3.06,2,4.88,5.32,4.88,2.31,0,3.99-.58,6.34-2.17.97-.67,1.33-.84,1.73-.84.58,0,1.02.53,1.02,1.2,0,2.26-5.46,4.97-10.02,4.97-4.83,0-7.89-3.15-7.89-8.2,0-3.28,1.24-6.92,3.28-9.62,2.31-3.06,5.68-4.79,9.36-4.79,4.44,0,7.49,3.41,7.49,8.34,0,3.24-.71,4.39-2.7,4.39h-13.75ZM1009.95,262.27c.18-.89.22-1.29.22-1.82,0-3.24-1.69-5.01-4.83-5.01-3.59,0-6.25,2.44-7.49,6.83h12.11Z"/><path class="e" d="M1045.74,253.71c.58-1.02,1.15-1.42,2.17-1.42.89,0,1.42.53,1.42,1.33,0,.49-.13.8-.75,1.86l-10.15,17.83c-.75,1.33-1.11,1.6-2.22,1.6s-1.42-.36-1.6-1.6l-2.57-17.83-.04-.35c-.04-.22-.04-.36-.04-.62,0-1.29.89-2.22,2.08-2.22.98,0,1.46.44,1.6,1.42l1.77,15.3h.09l8.25-15.3Z"/><path class="e" d="M1066.32,272.38c0,1.29-1.24,2.53-2.62,2.53-.98,0-1.73-.75-1.73-1.73,0-1.33,1.24-2.53,2.62-2.53.97,0,1.73.75,1.73,1.73Z"/><path class="d" d="M82.93,304.59L13.28,183.96c-6.93-12-6.93-26.78,0-38.78L82.93,24.55c6.93-12,19.73-19.39,33.58-19.39h139.29c13.85,0,26.66,7.39,33.58,19.39l69.64,120.63c6.93,12,6.93,26.78,0,38.78l-69.64,120.63c-6.93,12-19.73,19.39-33.58,19.39H116.51c-13.85,0-26.66-7.39-33.58-19.39Z"/><path class="e" d="M106.35,252.45c-2.72,0-5.37-1.41-6.82-3.94l-46.19-80c-1.41-2.44-1.41-5.44,0-7.87l46.19-80c2.17-3.77,6.99-5.05,10.75-2.88,3.76,2.17,5.05,6.99,2.88,10.75l-43.92,76.07,43.92,76.07c2.17,3.76.88,8.58-2.88,10.75-1.24.72-2.59,1.06-3.93,1.06Z"/><path class="e" d="M265.96,252.45c-1.34,0-2.69-.34-3.93-1.06-3.76-2.17-5.05-6.99-2.88-10.75l43.92-76.07-43.92-76.07c-2.17-3.76-.88-8.58,2.88-10.75,3.76-2.17,8.58-.89,10.75,2.88l46.19,80c1.41,2.43,1.41,5.44,0,7.87l-46.19,80c-1.46,2.52-4.1,3.94-6.82,3.94Z"/><g id="c"><path class="e" d="M149.35,203.77c1.21-4.59-1.76-9.1-3.86-13.35-3.05-6.13-4.49-13.04-4.16-19.85-3.65,2.99-9.56.8-12.12-3.16-2.56-3.96-2.69-8.98-2.71-13.7-.02-1.46-.02-2.97.45-4.35.94-2.71,3.59-4.55,6.36-5.27,2.77-.72,5.68-.53,8.55-.31.02-1.35.04-2.71.06-4.06-1.91-.74-4.27.02-5.37,1.74-.14-2.95,1.95-5.84,4.8-6.64-2.58-8.47-3.01-17.57-1.25-26.23-1.23-1.02-1.5-2.79-1.46-4.39.1-6.3,3.49-12.26,8.22-16.44,4.72-4.18,10.68-6.73,16.75-8.43,17.43-4.88,36.7-2.87,52.76,5.5,4.9,2.54,9.62,5.76,12.8,10.27,1.83,2.58,4.1,4.8,6.11,7.24,11.44,13.92,13.08,34.18,7.28,51.24-5.8,17.04-18.13,31.21-32.09,42.61-.35.27-.7.57-1.09.78-2.58,2.24-6.46,2.81-9.58,1.42.12,5.19.76,10.38,1.93,15.46.23.98.84,2.23,1.83,2.05,7.94-1.39,15.26,5.39,18.23,12.9,2.97,7.5,2.99,15.81,4.82,23.66h-70.64c.27-7.28,1.35-14.72,4.76-21.16,3.42-6.44,9.49-11.81,16.71-12.84-.21-2.89-.41-5.78-.61-8.67-5.68,1.87-11.71,2.64-17.67,2.21-2.44-.18-4.98-.57-7.01-1.93-2.03-1.37-3.45-3.92-2.81-6.29M182.99,202.44c-2.97,3.06-6.54,5.5-10.44,7.18,9.82-2.87,19.19-7.22,27.68-12.88,2.77-1.83,5.43-3.81,7.92-5.99,6.99-6.11,12.73-14.17,14.05-23.35-2.03,1.44-4.72,1.95-7.16,1.33.9-.78,2.19-.9,3.36-1.15,6.32-1.37,10.89-8.26,9.66-14.58-.47-2.44-1.82-4.86-4.06-5.93-1.58-.74-3.63-.92-4.53-2.4-1.48,2.32-3.34,4.43-5.47,6.21-1.19.98-3.01-.21-3.71-1.6-.7-1.39-1.03-3.08-2.32-3.92-1.17-.78-2.71-.59-4.1-.33-5.02.86-10.01,1.74-15.01,2.62-2.13.37-4.41.82-5.86,2.42-1.52,1.66-1.7,4.1-2.01,6.32-.55,4.02-1.91,8.22-5.17,10.6-2.32,1.68-5.29,2.23-8.16,2.3-3.12.1-6.42-.35-8.86-2.3-3.79-3.05-4.22-8.51-4.7-13.33-.2-1.85-.8-4.12-2.64-4.47-1.25-.23-2.5.68-3.06,1.83-.59,1.13-.64,2.46-.7,3.75-.25,5.39-.98,11.26-4.8,15.07-.39.37-.37.98-.35,1.5.16,2.4.31,4.8.45,7.2,1.09-3.1,4.2-5.13,7.38-5.88,3.2-.74,6.54-.39,9.8-.06,1.54.18,3.16.35,4.47,1.21,2.34,1.52,2.97,4.65,3.38,7.42.16,1.03.29,2.15-.18,3.06-.47.94-1.8,1.5-2.58.84-1.62-1.39-4.12-.02-6.19-.47-1.78-.37-3.2-2.07-5-1.87-1.78.2-2.91,2.13-4.65,2.48-.76.14-1.54-.04-2.32.02-.76.04-1.62.45-1.8,1.19-.1.49.12,1,.33,1.44,1.66,3.57,3.34,7.12,5,10.68,1.31-1.37,1.44-3.44,1.97-5.25.51-1.83,1.93-3.79,3.81-3.55,2.09.25,2.85,2.83,4.12,4.51,2.03,2.67,5.8,3.2,9.15,3.28,3.75.08,7.5-.16,11.2-.7,1.07-.16,2.28-.31,3.12.39.78.62.94,1.78.64,2.73-.31.96-.98,1.74-1.68,2.44M153.9,147.49c.72-2.3,2.69-4.06,4.92-5.06,2.21-.98,4.65-1.31,7.05-1.58,3.44-.39,6.97-.68,10.33.21,1.83.49,3.59,1.33,5.47,1.68,2.23.43,4.51.16,6.73-.1,5.82-.68,11.63-1.39,17.43-2.07-.41-1.83-1.91-3.22-3.51-4.22-1.6-.98-3.36-1.72-4.8-2.93-1.41-1.17-2.4-2.73-3.38-4.27-4.72-7.53-8.84-15.44-12.32-23.62-.33-.78-1.41-.9-2.26-.86-9.47.27-18.89,1.33-28.19,3.14-1.42.29-2.93.64-3.9,1.72-.61.66-.92,1.54-1.19,2.42-2.4,7.36-3.45,15.17-3.12,22.92,1.5.7,3.26.86,4.59,1.85,1.33,1,1.74,3.45.2,4.1-1.46.62-3.06-1.05-4.63-.72-1.05,1.15-.18,3.06,1.02,4.1,1.17,1.03,2.69,1.89,3.14,3.4,1.97-1.05,4.45-1.09,6.44-.12M156.79,147.69c-.57,1.27-.57,2.69-.51,4.06.12,2.56.47,5.11,1.07,7.61.55,2.23,1.35,4.51,3.1,5.97,2.09,1.76,5.06,1.93,7.77,1.72,1.89-.16,3.83-.49,5.43-1.5,2.81-1.76,4-5.19,4.74-8.43.51-2.26.9-4.57,1.13-6.87.1-.84.1-1.87-.61-2.36-2.44-1.68-5.56-2.34-8.47-1.82-2.93.55-5.6,2.28-7.28,4.74-.31.47-.61.98-1.07,1.29-.47.33-1.15.41-1.56,0-.53-.53-.21-1.42.2-2.05,1.78-2.89,4.7-5.08,8-5.97,3.28-.88,6.91-.47,9.92,1.13-.35-1.37-1.99-1.89-3.4-2.11-3.98-.57-8.06-.41-11.97.47-2.6.57-5.41,1.7-6.5,4.12M198.64,199.04c-6.05,3.83-12.57,6.95-19.38,9.25-1.27.43-1.37,2.17-1.23,3.49.21,1.99.43,3.96.64,5.93.2,1.85.06,4.26-1.7,4.88,4,.98,8.02-1.11,11.79-2.73,3.65-1.58,7.46-2.79,11.34-3.61.76-.18.76-1.27.57-2.05-1.23-4.96-1.91-10.05-2.03-15.17M142.72,160.1c-.1,2.28-.2,4.57-.29,6.85,2.17-3.94,3.2-8.49,2.95-12.98-.02-.35.21-.66.35-1,.55-1.31-.35-2.77-1.41-3.71-.41-.35-.88-.68-1.41-.66-.35.02-.66.18-.98.37-2.46,1.54-3.73,4.8-2.95,7.61-1.33-1.07-2.07-2.83-1.93-4.53-2.58.33-5.11.98-7.53,1.89-.25.1-.51.2-.68.41-.25.31-.23.8-.18,1.21.31,2.4.72,4.8,1.23,7.18.47,2.24,1.19,4.7,3.16,5.89,1.95,1.17,4.43.68,6.6-.02.53-.18,1.09-.41,1.39-.88.2-.35.21-.76.23-1.15.08-1.78.16-3.55.23-5.33.06-.98.08-2.01-.41-2.85-1.56-2.67-1.15-6.36,1-8.63.62-.66,1.83-.31,2.36.45.53.76.55,1.74.55,2.65.02,2.3-.14,4.94-1.97,6.3-.27.2-.31.57-.31.9M149.45,179.62c-1.09.33-2.01,1.19-2.38,2.26-.08.21-.14.45-.1.68.18.78,1.31.78,2.03.45,1.41-.68,2.52-1.97,4.04-2.34,1.6-.37,3.22.39,4.74,1.05,1.5.66,3.26,1.27,4.76.57-.43-.64-.86-1.31-1.27-1.95-.25-.39-.53-.8-.94-1-.37-.18-.8-.18-1.21-.16-2.62.08-5.21.16-7.83.21-.62.02-1.25.04-1.85.21M175.47,221.47c-.68.45-1.41,1.07-1.39,1.89.02,1.15,1.37,1.74,2.5,1.85,3.69.39,7.26-1.15,10.58-2.75,1.74-.82,3.45-1.68,5.17-2.56,0-.27-.43-.27-.68-.2-4.47,1.6-8.73,4.47-13.47,4.18-.57-.04-1.15-.14-1.56-.53-.41-.39-.47-1.17,0-1.46.57-.37.96-1.02,1-1.7-.74.37-1.44.8-2.15,1.27M142.37,145.99c-3.81-.41-7.73.21-11.22,1.82-.29.14-.62.35-.55.66,3.12-.45,6.25-.92,9.37-1.37.9-.14,1.91-.33,2.4-1.11M189.1,222.43c2.03-.76,3.98-1.68,5.86-2.77.33-.18.64-.37.82-.68-2.42.68-4.7,1.87-6.68,3.45M141.66,153.52c.25.2.55-.21.59-.53.1-.7.08-1.42-.06-2.11-.76.37-.76,1.46-.64,2.3.02.12.04.25.12.33"/><path class="e" d="M155.5,169.47c-.92-.21-1.41,1.27-2.34,1.42-.98.18-1.72-1.17-2.69-1.02.25.27-.35.66-.62.39-.25-.27-.18-.72-.06-1.07.14-.51.41-1.11.92-1.09.68,0,.9,1.02,1.54,1.17.66.18,1.11-.57,1.62-1.02.59-.49,1.44-.61,2.15-.29.68.31,1.17,1.05,1.17,1.82-.08.33-.55.35-.82.2-.29-.16-.53-.43-.86-.51"/><path class="e" d="M191.11,200.72c.16-.27.29-.53.45-.8.62-.21,1.25-.43,1.87-.64.45-.14.9-.29,1.35-.45.21-.47.86-.68,1.31-.43-3.85,2.75-8.14,4.88-12.67,6.23-.1-.37.31-.68.66-.86,1.33-.66,2.67-1.35,4.02-2.01.47.33,1.23-.2,1.09-.76.27-.16.55-.31.84-.47.16-.1.51.04.35.16.14-.2.27-.37.43-.57,0,.23.12.47.29.61"/><path class="e" d="M174.96,148.31c1.44,2.11,1.13,5.21-.68,6.99-1.83,1.78-4.96,2.01-7.03.53-1.83-1.33-2.28-4.12-1.21-6.11,1.05-1.99,3.4-3.14,5.66-3.06.82.02,1.66.2,2.32.66.37.27.68.61.94,1M168.68,150.01c0-.18-.02-.37-.12-.55-.27-.45-.98-.35-1.35.02-.35.37-.49.98-.23,1.42.27.45.94.61,1.33.29.33-.27.39-.76.37-1.19"/><path class="e" d="M183.96,135.25c.2.59-.74.8-1.35.7-6.77-1.09-13.9.21-19.83,3.65-.59.33-1.39.1-1.83-.41-.45-.51-.62-1.19-.68-1.87-.04-.41-.04-.86.18-1.21.23-.41.68-.64,1.11-.84,3.59-1.74,7.3-3.44,11.26-3.86,3.96-.43,8.3.59,10.95,3.55.08.08.16.18.2.29"/></g></svg>