<?xml version="1.0" encoding="UTF-8"?>
<svg id="b" xmlns="http://www.w3.org/2000/svg" version="1.1" viewBox="0 0 1080 1080">
  <defs>
    <style>
      .cls-1 {
        fill: #292e3b;
      }

      .cls-1, .cls-2 {
        stroke-width: 0px;
      }

      .cls-2 {
        fill: #e5e52e;
      }
    </style>
  </defs>
  <path class="cls-2" d="M235.1,953.6L29.3,597.3c-20.5-35.4-20.5-79.1,0-114.6L235.1,126.4c20.5-35.4,58.3-57.3,99.2-57.3h411.5c40.9,0,78.8,21.8,99.2,57.3l205.7,356.3c20.5,35.4,20.5,79.1,0,114.6l-205.7,356.3c-20.5,35.4-58.3,57.3-99.2,57.3h-411.5c-40.9,0-78.8-21.8-99.2-57.3h0Z"/>
  <path class="cls-1" d="M304.3,799.6c-8,0-15.9-4.2-20.1-11.6l-136.4-236.3c-4.1-7.2-4.1-16.1,0-23.2l136.4-236.3c6.4-11.1,20.7-14.9,31.8-8.5,11.1,6.4,14.9,20.6,8.5,31.8l-129.7,224.7,129.7,224.7c6.4,11.1,2.6,25.3-8.5,31.8-3.7,2.1-7.7,3.1-11.6,3.1h0Z"/>
  <path class="cls-1" d="M775.7,799.6c-4,0-8-1-11.6-3.1-11.1-6.4-14.9-20.6-8.5-31.8l129.7-224.7-129.7-224.7c-6.4-11.1-2.6-25.3,8.5-31.8,11.1-6.4,25.3-2.6,31.8,8.5l136.5,236.3c4.2,7.2,4.2,16.1,0,23.2l-136.5,236.3c-4.3,7.5-12.1,11.6-20.2,11.6h0Z"/>
  <g id="c">
    <path class="cls-1" d="M431.3,655.8c3.6-13.5-5.2-26.9-11.4-39.4-9-18.1-13.3-38.5-12.3-58.6-10.8,8.8-28.2,2.4-35.8-9.3-7.5-11.7-8-26.5-8-40.5,0-4.3,0-8.8,1.3-12.9,2.8-8,10.6-13.4,18.8-15.6,8.2-2.1,16.8-1.6,25.3-.9,0-4,.1-8,.2-12-5.6-2.2-12.6,0-15.9,5.1-.4-8.7,5.8-17.2,14.2-19.6-7.6-25-8.9-51.9-3.7-77.5-3.6-3-4.4-8.2-4.3-13,.3-18.6,10.3-36.2,24.3-48.5,14-12.3,31.5-19.9,49.5-24.9,51.5-14.4,108.4-8.5,155.9,16.3,14.5,7.5,28.4,17,37.8,30.3,5.4,7.6,12.1,14.2,18,21.4,33.8,41.1,38.6,101,21.5,151.4-17.1,50.3-53.6,92.2-94.8,125.9-1,.8-2.1,1.7-3.2,2.3-7.6,6.6-19.1,8.3-28.3,4.2.3,15.3,2.2,30.7,5.7,45.7.7,2.9,2.5,6.6,5.4,6,23.5-4.1,45.1,15.9,53.9,38.1,8.8,22.1,8.8,46.7,14.2,69.9h-208.7c.8-21.5,4-43.5,14.1-62.5,10.1-19,28-34.9,49.4-37.9-.6-8.5-1.2-17.1-1.8-25.6-16.8,5.5-34.6,7.8-52.2,6.5-7.2-.5-14.7-1.7-20.7-5.7-6-4-10.2-11.6-8.3-18.6M530.6,651.9c-8.8,9-19.3,16.3-30.9,21.2,29-8.5,56.7-21.3,81.8-38.1,8.2-5.4,16-11.2,23.4-17.7,20.6-18,37.6-41.9,41.5-69-6,4.3-14,5.8-21.2,3.9,2.7-2.3,6.5-2.7,9.9-3.4,18.7-4,32.2-24.4,28.5-43.1-1.4-7.2-5.4-14.4-12-17.5-4.7-2.2-10.7-2.7-13.4-7.1-4.4,6.9-9.9,13.1-16.2,18.3-3.5,2.9-8.9-.6-11-4.7-2.1-4.1-3.1-9.1-6.9-11.6-3.5-2.3-8-1.7-12.1-1-14.8,2.5-29.6,5.1-44.3,7.7-6.3,1.1-13,2.4-17.3,7.1-4.5,4.9-5,12.1-5.9,18.7-1.6,11.9-5.7,24.3-15.3,31.3-6.9,5-15.6,6.6-24.1,6.8-9.2.3-19-1-26.2-6.8-11.2-9-12.5-25.1-13.9-39.4-.6-5.5-2.4-12.2-7.8-13.2-3.7-.7-7.4,2-9,5.4-1.7,3.3-1.9,7.3-2.1,11.1-.8,15.9-2.9,33.3-14.2,44.5-1.1,1.1-1.1,2.9-1,4.4.5,7.1.9,14.2,1.3,21.3,3.2-9.2,12.4-15.2,21.8-17.4,9.5-2.2,19.3-1.2,29-.2,4.6.5,9.3,1,13.2,3.6,6.9,4.5,8.8,13.7,10,21.9.5,3.1.9,6.3-.5,9-1.4,2.8-5.3,4.4-7.6,2.5-4.8-4.1-12.2,0-18.3-1.4-5.2-1.1-9.5-6.1-14.8-5.5-5.2.6-8.6,6.3-13.7,7.3-2.2.4-4.6-.1-6.9,0-2.2.1-4.8,1.3-5.3,3.5-.3,1.4.4,2.9,1,4.3,4.9,10.5,9.9,21,14.8,31.5,3.9-4,4.3-10.2,5.8-15.5,1.5-5.4,5.7-11.2,11.2-10.5,6.2.8,8.4,8.4,12.2,13.3,6,7.9,17.1,9.5,27,9.7,11.1.2,22.1-.5,33.1-2.1,3.2-.5,6.8-.9,9.2,1.2,2.3,1.8,2.8,5.2,1.9,8.1-.9,2.8-2.9,5.1-5,7.2M444.7,489.5c2.1-6.8,8-12,14.5-14.9,6.5-2.9,13.7-3.9,20.8-4.7,10.1-1.1,20.6-2,30.5.6,5.4,1.4,10.6,3.9,16.2,5,6.6,1.3,13.3.5,19.9-.3,17.2-2,34.4-4.1,51.5-6.1-1.2-5.4-5.7-9.5-10.4-12.5-4.7-2.9-9.9-5.1-14.2-8.6-4.2-3.5-7.1-8.1-10-12.6-14-22.3-26.1-45.6-36.4-69.8-1-2.3-4.2-2.6-6.7-2.5-28,.8-55.8,3.9-83.3,9.3-4.2.9-8.6,1.9-11.5,5.1-1.8,2-2.7,4.6-3.5,7.1-7.1,21.7-10.2,44.8-9.2,67.7,4.4,2.1,9.6,2.5,13.5,5.5,3.9,2.9,5.1,10.2.6,12.1-4.3,1.9-9-3.1-13.7-2.1-3.1,3.4-.5,9,3,12.1,3.5,3.1,8,5.6,9.3,10,5.8-3.1,13.1-3.2,19-.4M453.3,490.1c-1.7,3.8-1.7,8-1.5,12,.4,7.5,1.4,15.1,3.2,22.5,1.6,6.6,4,13.3,9.2,17.6,6.2,5.2,14.9,5.7,23,5.1,5.6-.5,11.3-1.4,16-4.4,8.3-5.2,11.8-15.3,14-24.9,1.5-6.7,2.7-13.5,3.3-20.3.3-2.5.3-5.5-1.8-7-7.2-5-16.4-6.9-25-5.4-8.6,1.6-16.5,6.8-21.5,14-.9,1.4-1.8,2.9-3.2,3.8-1.4,1-3.4,1.2-4.6,0s-.6-4.2.6-6c5.2-8.5,13.9-15,23.6-17.6,9.7-2.6,20.4-1.4,29.3,3.3-1-4-5.9-5.6-10-6.2-11.8-1.7-23.8-1.2-35.4,1.4-7.7,1.7-16,5-19.2,12.2M576.9,641.8c-17.9,11.3-37.1,20.5-57.3,27.3-3.8,1.3-4,6.4-3.6,10.3.6,5.9,1.3,11.7,1.9,17.5.6,5.5.2,12.6-5,14.4,11.8,2.9,23.7-3.3,34.8-8.1,10.8-4.7,22-8.2,33.5-10.7,2.2-.5,2.2-3.8,1.7-6-3.6-14.7-5.7-29.7-6-44.8M411.7,526.8c-.3,6.8-.6,13.5-.9,20.2,6.4-11.7,9.5-25.1,8.7-38.3,0-1,.6-2,1-2.9,1.6-3.9-1-8.2-4.1-11-1.2-1-2.6-2-4.1-2-1,0-2,.5-2.9,1.1-7.3,4.6-11,14.2-8.7,22.5-3.9-3.2-6.1-8.4-5.7-13.4-7.6,1-15.1,2.9-22.3,5.6-.8.3-1.5.6-2,1.2-.8.9-.7,2.4-.5,3.6.9,7.1,2.1,14.2,3.6,21.2,1.4,6.6,3.5,13.9,9.3,17.4,5.8,3.5,13.1,2,19.5,0,1.6-.5,3.2-1.2,4.1-2.6.6-1,.6-2.2.7-3.4.2-5.2.5-10.5.7-15.7.2-2.9.2-5.9-1.2-8.4-4.6-7.9-3.4-18.8,2.9-25.5,1.9-2,5.4-.9,7,1.3s1.6,5.1,1.6,7.8c0,6.8-.4,14.6-5.8,18.6-.8.6-.9,1.7-.9,2.7M431.6,584.5c-3.2,1-5.9,3.5-7,6.7-.2.6-.4,1.3-.3,2,.5,2.3,3.9,2.3,6,1.3,4.1-2,7.4-5.8,11.9-6.9,4.7-1.1,9.5,1.2,14,3.1,4.4,2,9.6,3.8,14.1,1.7-1.3-1.9-2.5-3.9-3.8-5.8-.8-1.2-1.6-2.4-2.8-2.9-1.1-.5-2.4-.5-3.6-.5-7.7.2-15.4.5-23.1.6-1.9,0-3.7.1-5.5.6M508.4,708.1c-2,1.3-4.1,3.2-4.1,5.6,0,3.4,4,5.1,7.4,5.5,10.9,1.2,21.4-3.4,31.2-8.1,5.1-2.4,10.2-5,15.3-7.5,0-.8-1.3-.8-2-.6-13.2,4.7-25.8,13.2-39.8,12.3-1.7-.1-3.4-.4-4.6-1.6-1.2-1.2-1.4-3.5,0-4.3,1.7-1.1,2.8-3,2.9-5-2.2,1.1-4.3,2.4-6.3,3.8M410.6,485.1c-11.2-1.2-22.8.6-33.2,5.4-.9.4-1.9,1-1.6,2,9.2-1.3,18.5-2.7,27.7-4,2.6-.4,5.6-1,7.1-3.3M548.7,710.9c6-2.2,11.8-5,17.3-8.2,1-.5,1.9-1.1,2.4-2-7.2,2-13.9,5.5-19.7,10.2M408.6,507.4c.8.6,1.6-.6,1.7-1.6.3-2.1.2-4.2-.2-6.2-2.2,1.1-2.2,4.3-1.9,6.8,0,.4.1.8.4,1"/>
    <path class="cls-1" d="M449.5,554.5c-2.7-.6-4.1,3.8-6.9,4.2-2.9.5-5.1-3.5-8-3,.8.8-1,2-1.9,1.2-.8-.8-.5-2.1-.2-3.2.4-1.5,1.2-3.3,2.7-3.2,2,0,2.6,3,4.6,3.5,2,.5,3.3-1.7,4.8-3,1.7-1.4,4.3-1.8,6.3-.9,2,.9,3.5,3.1,3.5,5.4-.2,1-1.6,1-2.4.6-.9-.5-1.6-1.3-2.5-1.5"/>
    <path class="cls-1" d="M554.6,646.8c.5-.8.9-1.6,1.3-2.4,1.8-.6,3.7-1.3,5.5-1.9,1.3-.4,2.7-.9,4-1.3.6-1.4,2.5-2,3.9-1.3-11.4,8.1-24,14.4-37.4,18.4-.3-1.1.9-2,2-2.5,3.9-2,7.9-4,11.9-5.9,1.4,1,3.6-.6,3.2-2.2.8-.5,1.6-.9,2.5-1.4.5-.3,1.5.1,1,.5.4-.6.8-1.1,1.3-1.7,0,.7.3,1.4.9,1.8"/>
    <path class="cls-1" d="M506.9,492c4.3,6.2,3.3,15.4-2,20.6-5.4,5.2-14.6,5.9-20.8,1.6-5.4-3.9-6.8-12.2-3.6-18,3.1-5.9,10-9.3,16.7-9,2.4,0,4.9.6,6.9,2,1.1.8,2,1.8,2.8,2.9M488.4,497c0-.5,0-1.1-.4-1.6-.8-1.3-2.9-1-4,0-1,1.1-1.4,2.9-.7,4.2.8,1.3,2.8,1.8,3.9.9,1-.8,1.1-2.2,1.1-3.5"/>
    <path class="cls-1" d="M533.5,453.4c.6,1.7-2.2,2.4-4,2.1-20-3.2-41,.6-58.6,10.8-1.7,1-4.1.3-5.4-1.2-1.3-1.5-1.9-3.5-2-5.5-.1-1.2-.1-2.5.5-3.6.7-1.2,2-1.9,3.3-2.5,10.6-5.1,21.6-10.1,33.3-11.4,11.7-1.3,24.5,1.7,32.4,10.5.2.2.5.5.6.9"/>
  </g>
</svg>